ISO-10303-21;
HEADER;
/* Generated by software containing ST-Developer
 * from STEP Tools, Inc. (www.steptools.com) 
 */
/* OPTION: using custom renumber hook */

FILE_DESCRIPTION(
/* description */ ('STEP AP242 Edition 2',
'CAx-IF Rec.Pracs.---Representation and Presentation of Product Manufa
cturing Information (PMI)---4.0---2014-10-13',
'CAx-IF Rec.Pracs.---3D Tessellated Geometry---0.4---2014-09-14','2;1',
'CAx-IF Rec.Pracs.---User Defined Attributes---1.5---2016-08-15'),
/* implementation_level */ '2;1');

FILE_NAME(
/* name */ 'Fader Cap - Fader Cap',
/* time_stamp */ '2026-09-30T14:08:30Z',
/* author */ (''),
/* organization */ (''),
/* preprocessor_version */ 'ST-DEVELOPER v20',
/* originating_system */ 'ONSHAPE BY PTC INC, 1.221',
/* authorisation */ '  ');

FILE_SCHEMA (('AP242_MANAGED_MODEL_BASED_3D_ENGINEERING_MIM_LF { 1 0 10303 442 3 1 4 }'));
ENDSEC;

DATA;
#10=SHAPE_REPRESENTATION_RELATIONSHIP('','',#431,#11);
#11=ADVANCED_BREP_SHAPE_REPRESENTATION('',(#429),#745);
#12=B_SPLINE_CURVE_WITH_KNOTS('',3,(#679,#680,#681,#682,#683),
 .UNSPECIFIED.,.F.,.F.,(4,1,4),(0.,0.000823864903966765,0.00164772980793353),
 .UNSPECIFIED.);
#13=B_SPLINE_CURVE_WITH_KNOTS('',3,(#688,#689,#690,#691,#692),
 .UNSPECIFIED.,.F.,.F.,(4,1,4),(0.,0.000824531393413408,0.00164906278682682),
 .UNSPECIFIED.);
#14=B_SPLINE_CURVE_WITH_KNOTS('',3,(#705,#706,#707,#708,#709),
 .UNSPECIFIED.,.F.,.F.,(4,1,4),(0.,0.000824531393413407,0.00164906278682681),
 .UNSPECIFIED.);
#15=B_SPLINE_CURVE_WITH_KNOTS('',3,(#710,#711,#712,#713,#714),
 .UNSPECIFIED.,.F.,.F.,(4,1,4),(0.,0.000823864903966758,0.00164772980793352),
 .UNSPECIFIED.);
#16=CYLINDRICAL_SURFACE('',#438,0.0015);
#17=CYLINDRICAL_SURFACE('',#441,0.0015);
#18=CYLINDRICAL_SURFACE('',#444,0.0015);
#19=CYLINDRICAL_SURFACE('',#447,0.0015);
#20=CYLINDRICAL_SURFACE('',#450,0.0015);
#21=CYLINDRICAL_SURFACE('',#453,0.0015);
#22=CYLINDRICAL_SURFACE('',#456,0.0015);
#23=CYLINDRICAL_SURFACE('',#459,0.0015);
#24=CYLINDRICAL_SURFACE('',#464,0.0015);
#25=CYLINDRICAL_SURFACE('',#469,0.001);
#26=CYLINDRICAL_SURFACE('',#470,0.001);
#27=CYLINDRICAL_SURFACE('',#471,0.001);
#28=CYLINDRICAL_SURFACE('',#472,0.001);
#29=ELLIPSE('',#434,0.00101956042118047,0.001);
#30=ELLIPSE('',#435,0.00101956042118047,0.001);
#31=ELLIPSE('',#436,0.00101956042118047,0.001);
#32=ELLIPSE('',#437,0.00101956042118047,0.001);
#33=ELLIPSE('',#439,0.00151474135877793,0.0015);
#34=ELLIPSE('',#440,0.00151474135877793,0.0015);
#35=ELLIPSE('',#442,0.00151474135877793,0.0015);
#36=ELLIPSE('',#443,0.00151474135877793,0.0015);
#37=ELLIPSE('',#445,0.00151474135877793,0.0015);
#38=ELLIPSE('',#446,0.00151474135877793,0.0015);
#39=ELLIPSE('',#448,0.00151474135877793,0.0015);
#40=ELLIPSE('',#449,0.00151474135877793,0.0015);
#41=ELLIPSE('',#451,0.00151474135877793,0.0015);
#42=ELLIPSE('',#452,0.00151474135877793,0.0015);
#43=ELLIPSE('',#454,0.00151474135877793,0.0015);
#44=ELLIPSE('',#455,0.00151474135877793,0.0015);
#45=ELLIPSE('',#457,0.00151474135877793,0.0015);
#46=ELLIPSE('',#458,0.00151474135877793,0.0015);
#47=ELLIPSE('',#460,0.00151474135877793,0.0015);
#48=ELLIPSE('',#461,0.00151474135877793,0.0015);
#49=ELLIPSE('',#465,0.00151474135877793,0.0015);
#50=ELLIPSE('',#466,0.00151474135877793,0.0015);
#51=ORIENTED_EDGE('',*,*,#171,.F.);
#52=ORIENTED_EDGE('',*,*,#172,.T.);
#53=ORIENTED_EDGE('',*,*,#173,.T.);
#54=ORIENTED_EDGE('',*,*,#174,.T.);
#55=ORIENTED_EDGE('',*,*,#175,.T.);
#56=ORIENTED_EDGE('',*,*,#176,.T.);
#57=ORIENTED_EDGE('',*,*,#177,.F.);
#58=ORIENTED_EDGE('',*,*,#178,.T.);
#59=ORIENTED_EDGE('',*,*,#179,.F.);
#60=ORIENTED_EDGE('',*,*,#180,.T.);
#61=ORIENTED_EDGE('',*,*,#181,.T.);
#62=ORIENTED_EDGE('',*,*,#182,.F.);
#63=ORIENTED_EDGE('',*,*,#183,.T.);
#64=ORIENTED_EDGE('',*,*,#184,.F.);
#65=ORIENTED_EDGE('',*,*,#185,.F.);
#66=ORIENTED_EDGE('',*,*,#186,.T.);
#67=ORIENTED_EDGE('',*,*,#187,.T.);
#68=ORIENTED_EDGE('',*,*,#188,.F.);
#69=ORIENTED_EDGE('',*,*,#189,.F.);
#70=ORIENTED_EDGE('',*,*,#184,.T.);
#71=ORIENTED_EDGE('',*,*,#190,.T.);
#72=ORIENTED_EDGE('',*,*,#191,.F.);
#73=ORIENTED_EDGE('',*,*,#192,.F.);
#74=ORIENTED_EDGE('',*,*,#188,.T.);
#75=ORIENTED_EDGE('',*,*,#193,.F.);
#76=ORIENTED_EDGE('',*,*,#194,.F.);
#77=ORIENTED_EDGE('',*,*,#195,.T.);
#78=ORIENTED_EDGE('',*,*,#191,.T.);
#79=ORIENTED_EDGE('',*,*,#196,.F.);
#80=ORIENTED_EDGE('',*,*,#197,.F.);
#81=ORIENTED_EDGE('',*,*,#198,.T.);
#82=ORIENTED_EDGE('',*,*,#194,.T.);
#83=ORIENTED_EDGE('',*,*,#199,.F.);
#84=ORIENTED_EDGE('',*,*,#200,.F.);
#85=ORIENTED_EDGE('',*,*,#201,.T.);
#86=ORIENTED_EDGE('',*,*,#197,.T.);
#87=ORIENTED_EDGE('',*,*,#202,.F.);
#88=ORIENTED_EDGE('',*,*,#203,.F.);
#89=ORIENTED_EDGE('',*,*,#204,.T.);
#90=ORIENTED_EDGE('',*,*,#200,.T.);
#91=ORIENTED_EDGE('',*,*,#205,.F.);
#92=ORIENTED_EDGE('',*,*,#206,.T.);
#93=ORIENTED_EDGE('',*,*,#207,.T.);
#94=ORIENTED_EDGE('',*,*,#203,.T.);
#95=ORIENTED_EDGE('',*,*,#208,.F.);
#96=ORIENTED_EDGE('',*,*,#209,.T.);
#97=ORIENTED_EDGE('',*,*,#175,.F.);
#98=ORIENTED_EDGE('',*,*,#210,.T.);
#99=ORIENTED_EDGE('',*,*,#205,.T.);
#100=ORIENTED_EDGE('',*,*,#211,.T.);
#101=ORIENTED_EDGE('',*,*,#212,.F.);
#102=ORIENTED_EDGE('',*,*,#213,.T.);
#103=ORIENTED_EDGE('',*,*,#171,.T.);
#104=ORIENTED_EDGE('',*,*,#214,.T.);
#105=ORIENTED_EDGE('',*,*,#215,.F.);
#106=ORIENTED_EDGE('',*,*,#216,.T.);
#107=ORIENTED_EDGE('',*,*,#212,.T.);
#108=ORIENTED_EDGE('',*,*,#217,.T.);
#109=ORIENTED_EDGE('',*,*,#218,.T.);
#110=ORIENTED_EDGE('',*,*,#186,.F.);
#111=ORIENTED_EDGE('',*,*,#173,.F.);
#112=ORIENTED_EDGE('',*,*,#219,.T.);
#113=ORIENTED_EDGE('',*,*,#215,.T.);
#114=ORIENTED_EDGE('',*,*,#185,.T.);
#115=ORIENTED_EDGE('',*,*,#189,.T.);
#116=ORIENTED_EDGE('',*,*,#192,.T.);
#117=ORIENTED_EDGE('',*,*,#195,.F.);
#118=ORIENTED_EDGE('',*,*,#198,.F.);
#119=ORIENTED_EDGE('',*,*,#201,.F.);
#120=ORIENTED_EDGE('',*,*,#204,.F.);
#121=ORIENTED_EDGE('',*,*,#207,.F.);
#122=ORIENTED_EDGE('',*,*,#220,.T.);
#123=ORIENTED_EDGE('',*,*,#177,.T.);
#124=ORIENTED_EDGE('',*,*,#221,.T.);
#125=ORIENTED_EDGE('',*,*,#208,.T.);
#126=ORIENTED_EDGE('',*,*,#202,.T.);
#127=ORIENTED_EDGE('',*,*,#199,.T.);
#128=ORIENTED_EDGE('',*,*,#196,.T.);
#129=ORIENTED_EDGE('',*,*,#193,.T.);
#130=ORIENTED_EDGE('',*,*,#190,.F.);
#131=ORIENTED_EDGE('',*,*,#187,.F.);
#132=ORIENTED_EDGE('',*,*,#183,.F.);
#133=ORIENTED_EDGE('',*,*,#218,.F.);
#134=ORIENTED_EDGE('',*,*,#222,.T.);
#135=ORIENTED_EDGE('',*,*,#172,.F.);
#136=ORIENTED_EDGE('',*,*,#213,.F.);
#137=ORIENTED_EDGE('',*,*,#216,.F.);
#138=ORIENTED_EDGE('',*,*,#219,.F.);
#139=ORIENTED_EDGE('',*,*,#174,.F.);
#140=ORIENTED_EDGE('',*,*,#220,.F.);
#141=ORIENTED_EDGE('',*,*,#206,.F.);
#142=ORIENTED_EDGE('',*,*,#210,.F.);
#143=ORIENTED_EDGE('',*,*,#176,.F.);
#144=ORIENTED_EDGE('',*,*,#211,.F.);
#145=ORIENTED_EDGE('',*,*,#209,.F.);
#146=ORIENTED_EDGE('',*,*,#221,.F.);
#147=ORIENTED_EDGE('',*,*,#178,.F.);
#148=ORIENTED_EDGE('',*,*,#222,.F.);
#149=ORIENTED_EDGE('',*,*,#217,.F.);
#150=ORIENTED_EDGE('',*,*,#214,.F.);
#151=ORIENTED_EDGE('',*,*,#180,.F.);
#152=ORIENTED_EDGE('',*,*,#223,.F.);
#153=ORIENTED_EDGE('',*,*,#224,.T.);
#154=ORIENTED_EDGE('',*,*,#225,.T.);
#155=ORIENTED_EDGE('',*,*,#179,.T.);
#156=ORIENTED_EDGE('',*,*,#226,.F.);
#157=ORIENTED_EDGE('',*,*,#227,.F.);
#158=ORIENTED_EDGE('',*,*,#223,.T.);
#159=ORIENTED_EDGE('',*,*,#182,.T.);
#160=ORIENTED_EDGE('',*,*,#228,.F.);
#161=ORIENTED_EDGE('',*,*,#229,.F.);
#162=ORIENTED_EDGE('',*,*,#226,.T.);
#163=ORIENTED_EDGE('',*,*,#181,.F.);
#164=ORIENTED_EDGE('',*,*,#225,.F.);
#165=ORIENTED_EDGE('',*,*,#230,.T.);
#166=ORIENTED_EDGE('',*,*,#228,.T.);
#167=ORIENTED_EDGE('',*,*,#224,.F.);
#168=ORIENTED_EDGE('',*,*,#227,.T.);
#169=ORIENTED_EDGE('',*,*,#229,.T.);
#170=ORIENTED_EDGE('',*,*,#230,.F.);
#171=EDGE_CURVE('',#231,#232,#271,.F.);
#172=EDGE_CURVE('',#231,#233,#29,.T.);
#173=EDGE_CURVE('',#233,#234,#272,.T.);
#174=EDGE_CURVE('',#234,#235,#30,.T.);
#175=EDGE_CURVE('',#235,#236,#273,.T.);
#176=EDGE_CURVE('',#236,#237,#31,.T.);
#177=EDGE_CURVE('',#238,#237,#274,.F.);
#178=EDGE_CURVE('',#238,#232,#32,.T.);
#179=EDGE_CURVE('',#239,#240,#275,.T.);
#180=EDGE_CURVE('',#239,#241,#276,.T.);
#181=EDGE_CURVE('',#241,#242,#277,.T.);
#182=EDGE_CURVE('',#240,#242,#278,.T.);
#183=EDGE_CURVE('',#243,#244,#33,.T.);
#184=EDGE_CURVE('',#245,#244,#279,.T.);
#185=EDGE_CURVE('',#246,#245,#34,.F.);
#186=EDGE_CURVE('',#246,#243,#280,.T.);
#187=EDGE_CURVE('',#244,#247,#35,.T.);
#188=EDGE_CURVE('',#248,#247,#281,.T.);
#189=EDGE_CURVE('',#245,#248,#36,.F.);
#190=EDGE_CURVE('',#247,#249,#37,.T.);
#191=EDGE_CURVE('',#250,#249,#282,.T.);
#192=EDGE_CURVE('',#248,#250,#38,.F.);
#193=EDGE_CURVE('',#251,#249,#39,.F.);
#194=EDGE_CURVE('',#252,#251,#283,.T.);
#195=EDGE_CURVE('',#252,#250,#40,.T.);
#196=EDGE_CURVE('',#253,#251,#41,.F.);
#197=EDGE_CURVE('',#254,#253,#284,.T.);
#198=EDGE_CURVE('',#254,#252,#42,.T.);
#199=EDGE_CURVE('',#255,#253,#43,.F.);
#200=EDGE_CURVE('',#256,#255,#285,.T.);
#201=EDGE_CURVE('',#256,#254,#44,.T.);
#202=EDGE_CURVE('',#257,#255,#45,.F.);
#203=EDGE_CURVE('',#258,#257,#286,.T.);
#204=EDGE_CURVE('',#258,#256,#46,.T.);
#205=EDGE_CURVE('',#259,#260,#287,.T.);
#206=EDGE_CURVE('',#259,#261,#12,.T.);
#207=EDGE_CURVE('',#261,#258,#47,.T.);
#208=EDGE_CURVE('',#262,#257,#48,.F.);
#209=EDGE_CURVE('',#262,#260,#13,.T.);
#210=EDGE_CURVE('',#235,#259,#288,.T.);
#211=EDGE_CURVE('',#260,#236,#289,.T.);
#212=EDGE_CURVE('',#263,#264,#290,.T.);
#213=EDGE_CURVE('',#263,#231,#291,.F.);
#214=EDGE_CURVE('',#232,#264,#292,.F.);
#215=EDGE_CURVE('',#265,#246,#49,.F.);
#216=EDGE_CURVE('',#265,#263,#14,.T.);
#217=EDGE_CURVE('',#264,#266,#15,.T.);
#218=EDGE_CURVE('',#266,#243,#50,.T.);
#219=EDGE_CURVE('',#233,#265,#293,.F.);
#220=EDGE_CURVE('',#261,#234,#294,.F.);
#221=EDGE_CURVE('',#237,#262,#295,.T.);
#222=EDGE_CURVE('',#266,#238,#296,.T.);
#223=EDGE_CURVE('',#267,#239,#297,.T.);
#224=EDGE_CURVE('',#267,#268,#298,.T.);
#225=EDGE_CURVE('',#268,#241,#299,.T.);
#226=EDGE_CURVE('',#269,#240,#300,.T.);
#227=EDGE_CURVE('',#267,#269,#301,.T.);
#228=EDGE_CURVE('',#270,#242,#302,.T.);
#229=EDGE_CURVE('',#269,#270,#303,.T.);
#230=EDGE_CURVE('',#268,#270,#304,.T.);
#231=VERTEX_POINT('',#607);
#232=VERTEX_POINT('',#608);
#233=VERTEX_POINT('',#610);
#234=VERTEX_POINT('',#612);
#235=VERTEX_POINT('',#614);
#236=VERTEX_POINT('',#616);
#237=VERTEX_POINT('',#618);
#238=VERTEX_POINT('',#620);
#239=VERTEX_POINT('',#623);
#240=VERTEX_POINT('',#624);
#241=VERTEX_POINT('',#626);
#242=VERTEX_POINT('',#628);
#243=VERTEX_POINT('',#632);
#244=VERTEX_POINT('',#633);
#245=VERTEX_POINT('',#635);
#246=VERTEX_POINT('',#637);
#247=VERTEX_POINT('',#641);
#248=VERTEX_POINT('',#643);
#249=VERTEX_POINT('',#647);
#250=VERTEX_POINT('',#649);
#251=VERTEX_POINT('',#653);
#252=VERTEX_POINT('',#655);
#253=VERTEX_POINT('',#659);
#254=VERTEX_POINT('',#661);
#255=VERTEX_POINT('',#665);
#256=VERTEX_POINT('',#667);
#257=VERTEX_POINT('',#671);
#258=VERTEX_POINT('',#673);
#259=VERTEX_POINT('',#677);
#260=VERTEX_POINT('',#678);
#261=VERTEX_POINT('',#684);
#262=VERTEX_POINT('',#687);
#263=VERTEX_POINT('',#698);
#264=VERTEX_POINT('',#699);
#265=VERTEX_POINT('',#704);
#266=VERTEX_POINT('',#715);
#267=VERTEX_POINT('',#729);
#268=VERTEX_POINT('',#731);
#269=VERTEX_POINT('',#735);
#270=VERTEX_POINT('',#739);
#271=LINE('',#606,#305);
#272=LINE('',#611,#306);
#273=LINE('',#615,#307);
#274=LINE('',#619,#308);
#275=LINE('',#622,#309);
#276=LINE('',#625,#310);
#277=LINE('',#627,#311);
#278=LINE('',#629,#312);
#279=LINE('',#634,#313);
#280=LINE('',#638,#314);
#281=LINE('',#642,#315);
#282=LINE('',#648,#316);
#283=LINE('',#654,#317);
#284=LINE('',#660,#318);
#285=LINE('',#666,#319);
#286=LINE('',#672,#320);
#287=LINE('',#676,#321);
#288=LINE('',#694,#322);
#289=LINE('',#695,#323);
#290=LINE('',#697,#324);
#291=LINE('',#700,#325);
#292=LINE('',#701,#326);
#293=LINE('',#718,#327);
#294=LINE('',#719,#328);
#295=LINE('',#721,#329);
#296=LINE('',#722,#330);
#297=LINE('',#728,#331);
#298=LINE('',#730,#332);
#299=LINE('',#732,#333);
#300=LINE('',#734,#334);
#301=LINE('',#736,#335);
#302=LINE('',#738,#336);
#303=LINE('',#740,#337);
#304=LINE('',#742,#338);
#305=VECTOR('',#482,1.);
#306=VECTOR('',#485,1.);
#307=VECTOR('',#488,1.);
#308=VECTOR('',#491,1.);
#309=VECTOR('',#494,1.);
#310=VECTOR('',#495,1.);
#311=VECTOR('',#496,1.);
#312=VECTOR('',#497,1.);
#313=VECTOR('',#502,1.);
#314=VECTOR('',#505,1.);
#315=VECTOR('',#510,1.);
#316=VECTOR('',#517,1.);
#317=VECTOR('',#524,1.);
#318=VECTOR('',#531,1.);
#319=VECTOR('',#538,1.);
#320=VECTOR('',#545,1.);
#321=VECTOR('',#550,1.);
#322=VECTOR('',#557,1.);
#323=VECTOR('',#558,1.);
#324=VECTOR('',#561,1.);
#325=VECTOR('',#562,1.);
#326=VECTOR('',#563,1.);
#327=VECTOR('',#572,1.);
#328=VECTOR('',#573,1.);
#329=VECTOR('',#576,1.);
#330=VECTOR('',#577,1.);
#331=VECTOR('',#588,1.);
#332=VECTOR('',#589,1.);
#333=VECTOR('',#590,1.);
#334=VECTOR('',#593,1.);
#335=VECTOR('',#594,1.);
#336=VECTOR('',#597,1.);
#337=VECTOR('',#598,1.);
#338=VECTOR('',#601,1.);
#339=EDGE_LOOP('',(#51,#52,#53,#54,#55,#56,#57,#58));
#340=EDGE_LOOP('',(#59,#60,#61,#62));
#341=EDGE_LOOP('',(#63,#64,#65,#66));
#342=EDGE_LOOP('',(#67,#68,#69,#70));
#343=EDGE_LOOP('',(#71,#72,#73,#74));
#344=EDGE_LOOP('',(#75,#76,#77,#78));
#345=EDGE_LOOP('',(#79,#80,#81,#82));
#346=EDGE_LOOP('',(#83,#84,#85,#86));
#347=EDGE_LOOP('',(#87,#88,#89,#90));
#348=EDGE_LOOP('',(#91,#92,#93,#94,#95,#96));
#349=EDGE_LOOP('',(#97,#98,#99,#100));
#350=EDGE_LOOP('',(#101,#102,#103,#104));
#351=EDGE_LOOP('',(#105,#106,#107,#108,#109,#110));
#352=EDGE_LOOP('',(#111,#112,#113,#114,#115,#116,#117,#118,#119,#120,#121,
#122));
#353=EDGE_LOOP('',(#123,#124,#125,#126,#127,#128,#129,#130,#131,#132,#133,
#134));
#354=EDGE_LOOP('',(#135,#136,#137,#138));
#355=EDGE_LOOP('',(#139,#140,#141,#142));
#356=EDGE_LOOP('',(#143,#144,#145,#146));
#357=EDGE_LOOP('',(#147,#148,#149,#150));
#358=EDGE_LOOP('',(#151,#152,#153,#154));
#359=EDGE_LOOP('',(#155,#156,#157,#158));
#360=EDGE_LOOP('',(#159,#160,#161,#162));
#361=EDGE_LOOP('',(#163,#164,#165,#166));
#362=EDGE_LOOP('',(#167,#168,#169,#170));
#363=FACE_BOUND('',#339,.T.);
#364=FACE_BOUND('',#340,.T.);
#365=FACE_BOUND('',#341,.T.);
#366=FACE_BOUND('',#342,.T.);
#367=FACE_BOUND('',#343,.T.);
#368=FACE_BOUND('',#344,.T.);
#369=FACE_BOUND('',#345,.T.);
#370=FACE_BOUND('',#346,.T.);
#371=FACE_BOUND('',#347,.T.);
#372=FACE_BOUND('',#348,.T.);
#373=FACE_BOUND('',#349,.T.);
#374=FACE_BOUND('',#350,.T.);
#375=FACE_BOUND('',#351,.T.);
#376=FACE_BOUND('',#352,.T.);
#377=FACE_BOUND('',#353,.T.);
#378=FACE_BOUND('',#354,.T.);
#379=FACE_BOUND('',#355,.T.);
#380=FACE_BOUND('',#356,.T.);
#381=FACE_BOUND('',#357,.T.);
#382=FACE_BOUND('',#358,.T.);
#383=FACE_BOUND('',#359,.T.);
#384=FACE_BOUND('',#360,.T.);
#385=FACE_BOUND('',#361,.T.);
#386=FACE_BOUND('',#362,.T.);
#387=PLANE('',#433);
#388=PLANE('',#462);
#389=PLANE('',#463);
#390=PLANE('',#467);
#391=PLANE('',#468);
#392=PLANE('',#473);
#393=PLANE('',#474);
#394=PLANE('',#475);
#395=PLANE('',#476);
#396=PLANE('',#477);
#397=ADVANCED_FACE('',(#363,#364),#387,.T.);
#398=ADVANCED_FACE('',(#365),#16,.F.);
#399=ADVANCED_FACE('',(#366),#17,.F.);
#400=ADVANCED_FACE('',(#367),#18,.F.);
#401=ADVANCED_FACE('',(#368),#19,.F.);
#402=ADVANCED_FACE('',(#369),#20,.F.);
#403=ADVANCED_FACE('',(#370),#21,.F.);
#404=ADVANCED_FACE('',(#371),#22,.F.);
#405=ADVANCED_FACE('',(#372),#23,.F.);
#406=ADVANCED_FACE('',(#373),#388,.T.);
#407=ADVANCED_FACE('',(#374),#389,.T.);
#408=ADVANCED_FACE('',(#375),#24,.F.);
#409=ADVANCED_FACE('',(#376),#390,.T.);
#410=ADVANCED_FACE('',(#377),#391,.T.);
#411=ADVANCED_FACE('',(#378),#25,.T.);
#412=ADVANCED_FACE('',(#379),#26,.T.);
#413=ADVANCED_FACE('',(#380),#27,.T.);
#414=ADVANCED_FACE('',(#381),#28,.T.);
#415=ADVANCED_FACE('',(#382),#392,.T.);
#416=ADVANCED_FACE('',(#383),#393,.F.);
#417=ADVANCED_FACE('',(#384),#394,.F.);
#418=ADVANCED_FACE('',(#385),#395,.T.);
#419=ADVANCED_FACE('',(#386),#396,.T.);
#420=CLOSED_SHELL('',(#397,#398,#399,#400,#401,#402,#403,#404,#405,#406,
#407,#408,#409,#410,#411,#412,#413,#414,#415,#416,#417,#418,#419));
#421=STYLED_ITEM('',(#422),#429);
#422=PRESENTATION_STYLE_ASSIGNMENT((#423));
#423=SURFACE_STYLE_USAGE(.BOTH.,#424);
#424=SURFACE_SIDE_STYLE('',(#425));
#425=SURFACE_STYLE_FILL_AREA(#426);
#426=FILL_AREA_STYLE('',(#427));
#427=FILL_AREA_STYLE_COLOUR('',#428);
#428=COLOUR_RGB('',0.615686274509804,0.811764705882353,0.929411764705882);
#429=MANIFOLD_SOLID_BREP('Fader Cap',#420);
#430=SHAPE_DEFINITION_REPRESENTATION(#750,#431);
#431=SHAPE_REPRESENTATION('Fader Cap',(#432),#745);
#432=AXIS2_PLACEMENT_3D('',#604,#478,#479);
#433=AXIS2_PLACEMENT_3D('',#605,#480,#481);
#434=AXIS2_PLACEMENT_3D('',#609,#483,#484);
#435=AXIS2_PLACEMENT_3D('',#613,#486,#487);
#436=AXIS2_PLACEMENT_3D('',#617,#489,#490);
#437=AXIS2_PLACEMENT_3D('',#621,#492,#493);
#438=AXIS2_PLACEMENT_3D('',#630,#498,#499);
#439=AXIS2_PLACEMENT_3D('',#631,#500,#501);
#440=AXIS2_PLACEMENT_3D('',#636,#503,#504);
#441=AXIS2_PLACEMENT_3D('',#639,#506,#507);
#442=AXIS2_PLACEMENT_3D('',#640,#508,#509);
#443=AXIS2_PLACEMENT_3D('',#644,#511,#512);
#444=AXIS2_PLACEMENT_3D('',#645,#513,#514);
#445=AXIS2_PLACEMENT_3D('',#646,#515,#516);
#446=AXIS2_PLACEMENT_3D('',#650,#518,#519);
#447=AXIS2_PLACEMENT_3D('',#651,#520,#521);
#448=AXIS2_PLACEMENT_3D('',#652,#522,#523);
#449=AXIS2_PLACEMENT_3D('',#656,#525,#526);
#450=AXIS2_PLACEMENT_3D('',#657,#527,#528);
#451=AXIS2_PLACEMENT_3D('',#658,#529,#530);
#452=AXIS2_PLACEMENT_3D('',#662,#532,#533);
#453=AXIS2_PLACEMENT_3D('',#663,#534,#535);
#454=AXIS2_PLACEMENT_3D('',#664,#536,#537);
#455=AXIS2_PLACEMENT_3D('',#668,#539,#540);
#456=AXIS2_PLACEMENT_3D('',#669,#541,#542);
#457=AXIS2_PLACEMENT_3D('',#670,#543,#544);
#458=AXIS2_PLACEMENT_3D('',#674,#546,#547);
#459=AXIS2_PLACEMENT_3D('',#675,#548,#549);
#460=AXIS2_PLACEMENT_3D('',#685,#551,#552);
#461=AXIS2_PLACEMENT_3D('',#686,#553,#554);
#462=AXIS2_PLACEMENT_3D('',#693,#555,#556);
#463=AXIS2_PLACEMENT_3D('',#696,#559,#560);
#464=AXIS2_PLACEMENT_3D('',#702,#564,#565);
#465=AXIS2_PLACEMENT_3D('',#703,#566,#567);
#466=AXIS2_PLACEMENT_3D('',#716,#568,#569);
#467=AXIS2_PLACEMENT_3D('',#717,#570,#571);
#468=AXIS2_PLACEMENT_3D('',#720,#574,#575);
#469=AXIS2_PLACEMENT_3D('',#723,#578,#579);
#470=AXIS2_PLACEMENT_3D('',#724,#580,#581);
#471=AXIS2_PLACEMENT_3D('',#725,#582,#583);
#472=AXIS2_PLACEMENT_3D('',#726,#584,#585);
#473=AXIS2_PLACEMENT_3D('',#727,#586,#587);
#474=AXIS2_PLACEMENT_3D('',#733,#591,#592);
#475=AXIS2_PLACEMENT_3D('',#737,#595,#596);
#476=AXIS2_PLACEMENT_3D('',#741,#599,#600);
#477=AXIS2_PLACEMENT_3D('',#743,#602,#603);
#478=DIRECTION('',(0.,0.,1.));
#479=DIRECTION('',(1.,0.,0.));
#480=DIRECTION('',(0.,0.,-1.));
#481=DIRECTION('',(-1.,0.,0.));
#482=DIRECTION('',(1.,0.,0.));
#483=DIRECTION('',(0.,0.,-1.));
#484=DIRECTION('',(-0.707106781186548,-0.707106781186548,0.));
#485=DIRECTION('',(0.,-1.,0.));
#486=DIRECTION('',(0.,0.,-1.));
#487=DIRECTION('',(-0.707106781186548,0.707106781186548,0.));
#488=DIRECTION('',(-1.,0.,0.));
#489=DIRECTION('',(0.,0.,-1.));
#490=DIRECTION('',(0.707106781186548,0.707106781186548,0.));
#491=DIRECTION('',(0.,1.,0.));
#492=DIRECTION('',(0.,0.,-1.));
#493=DIRECTION('',(0.707106781186548,-0.707106781186548,0.));
#494=DIRECTION('',(-1.,0.,0.));
#495=DIRECTION('',(-6.7762635780344E-17,1.,0.));
#496=DIRECTION('',(-1.,0.,0.));
#497=DIRECTION('',(-6.7762635780344E-17,1.,0.));
#498=DIRECTION('',(-1.,0.,0.));
#499=DIRECTION('',(0.,0.,1.));
#500=DIRECTION('',(-0.99026806874157,0.,0.139173100960065));
#501=DIRECTION('',(-0.139173100960065,0.,-0.99026806874157));
#502=DIRECTION('',(-1.,0.,0.));
#503=DIRECTION('',(0.99026806874157,0.,0.139173100960065));
#504=DIRECTION('',(-0.139173100960065,0.,0.99026806874157));
#505=DIRECTION('',(-1.,0.,0.));
#506=DIRECTION('',(-1.,0.,0.));
#507=DIRECTION('',(0.,0.,1.));
#508=DIRECTION('',(-0.99026806874157,0.,0.139173100960065));
#509=DIRECTION('',(-0.139173100960065,0.,-0.99026806874157));
#510=DIRECTION('',(-1.,0.,0.));
#511=DIRECTION('',(0.99026806874157,0.,0.139173100960065));
#512=DIRECTION('',(-0.139173100960065,0.,0.99026806874157));
#513=DIRECTION('',(-1.,0.,0.));
#514=DIRECTION('',(0.,0.,1.));
#515=DIRECTION('',(-0.99026806874157,0.,0.139173100960065));
#516=DIRECTION('',(-0.139173100960065,0.,-0.99026806874157));
#517=DIRECTION('',(-1.,0.,0.));
#518=DIRECTION('',(0.99026806874157,0.,0.139173100960065));
#519=DIRECTION('',(-0.139173100960065,0.,0.99026806874157));
#520=DIRECTION('',(-1.,0.,0.));
#521=DIRECTION('',(0.,0.,1.));
#522=DIRECTION('',(-0.99026806874157,0.,0.139173100960065));
#523=DIRECTION('',(-0.139173100960065,0.,-0.99026806874157));
#524=DIRECTION('',(-1.,0.,0.));
#525=DIRECTION('',(0.99026806874157,0.,0.139173100960065));
#526=DIRECTION('',(-0.139173100960065,0.,0.99026806874157));
#527=DIRECTION('',(-1.,0.,0.));
#528=DIRECTION('',(0.,0.,1.));
#529=DIRECTION('',(-0.99026806874157,0.,0.139173100960065));
#530=DIRECTION('',(-0.139173100960065,0.,-0.99026806874157));
#531=DIRECTION('',(-1.,0.,0.));
#532=DIRECTION('',(0.99026806874157,0.,0.139173100960065));
#533=DIRECTION('',(-0.139173100960065,0.,0.99026806874157));
#534=DIRECTION('',(-1.,0.,0.));
#535=DIRECTION('',(0.,0.,1.));
#536=DIRECTION('',(-0.99026806874157,0.,0.139173100960065));
#537=DIRECTION('',(-0.139173100960065,0.,-0.99026806874157));
#538=DIRECTION('',(-1.,0.,0.));
#539=DIRECTION('',(0.99026806874157,0.,0.139173100960065));
#540=DIRECTION('',(-0.139173100960065,0.,0.99026806874157));
#541=DIRECTION('',(-1.,0.,0.));
#542=DIRECTION('',(0.,0.,1.));
#543=DIRECTION('',(-0.99026806874157,0.,0.139173100960065));
#544=DIRECTION('',(-0.139173100960065,0.,-0.99026806874157));
#545=DIRECTION('',(-1.,0.,0.));
#546=DIRECTION('',(0.99026806874157,0.,0.139173100960065));
#547=DIRECTION('',(-0.139173100960065,0.,0.99026806874157));
#548=DIRECTION('',(-1.,0.,0.));
#549=DIRECTION('',(0.,0.,1.));
#550=DIRECTION('',(-1.,0.,0.));
#551=DIRECTION('',(0.99026806874157,0.,0.139173100960065));
#552=DIRECTION('',(-0.139173100960065,0.,0.99026806874157));
#553=DIRECTION('',(-0.99026806874157,0.,0.139173100960065));
#554=DIRECTION('',(-0.139173100960065,0.,-0.99026806874157));
#555=DIRECTION('',(0.,-0.99026806874157,0.139173100960065));
#556=DIRECTION('',(0.,0.139173100960065,0.99026806874157));
#557=DIRECTION('',(-0.137844537491629,0.137844537491629,0.980814848463989));
#558=DIRECTION('',(-0.137844537491629,-0.137844537491629,-0.980814848463989));
#559=DIRECTION('',(0.,0.99026806874157,0.139173100960065));
#560=DIRECTION('',(0.,-0.139173100960065,0.99026806874157));
#561=DIRECTION('',(-1.,0.,0.));
#562=DIRECTION('',(-0.137844537491629,-0.137844537491629,0.980814848463989));
#563=DIRECTION('',(-0.137844537491629,0.137844537491629,-0.980814848463989));
#564=DIRECTION('',(-1.,0.,0.));
#565=DIRECTION('',(0.,0.,1.));
#566=DIRECTION('',(0.99026806874157,0.,0.139173100960065));
#567=DIRECTION('',(-0.139173100960065,0.,0.99026806874157));
#568=DIRECTION('',(-0.99026806874157,0.,0.139173100960065));
#569=DIRECTION('',(-0.139173100960065,0.,-0.99026806874157));
#570=DIRECTION('',(0.99026806874157,0.,0.139173100960065));
#571=DIRECTION('',(-0.139173100960065,0.,0.99026806874157));
#572=DIRECTION('',(0.137844537491629,0.137844537491629,-0.980814848463989));
#573=DIRECTION('',(-0.137844537491629,0.137844537491629,0.980814848463989));
#574=DIRECTION('',(-0.99026806874157,0.,0.139173100960065));
#575=DIRECTION('',(0.139173100960065,0.,0.99026806874157));
#576=DIRECTION('',(0.137844537491629,0.137844537491629,0.980814848463989));
#577=DIRECTION('',(-0.137844537491629,0.137844537491629,-0.980814848463989));
#578=DIRECTION('',(-0.137844537491629,-0.137844537491629,0.980814848463989));
#579=DIRECTION('',(0.99026806874157,0.,0.139173100960065));
#580=DIRECTION('',(-0.137844537491629,0.137844537491629,0.980814848463989));
#581=DIRECTION('',(0.99026806874157,0.,0.139173100960065));
#582=DIRECTION('',(0.137844537491629,0.137844537491629,0.980814848463989));
#583=DIRECTION('',(0.99026806874157,0.,-0.139173100960065));
#584=DIRECTION('',(0.137844537491629,-0.137844537491629,0.980814848463989));
#585=DIRECTION('',(0.99026806874157,0.,-0.139173100960065));
#586=DIRECTION('',(-1.,-6.7762635780344E-17,0.));
#587=DIRECTION('',(6.7762635780344E-17,-1.,0.));
#588=DIRECTION('',(0.,0.,-1.));
#589=DIRECTION('',(-6.7762635780344E-17,1.,0.));
#590=DIRECTION('',(0.,0.,-1.));
#591=DIRECTION('',(0.,-1.,0.));
#592=DIRECTION('',(0.,0.,-1.));
#593=DIRECTION('',(0.,0.,-1.));
#594=DIRECTION('',(-1.,0.,0.));
#595=DIRECTION('',(-1.,-6.7762635780344E-17,0.));
#596=DIRECTION('',(6.7762635780344E-17,-1.,0.));
#597=DIRECTION('',(0.,0.,-1.));
#598=DIRECTION('',(-6.7762635780344E-17,1.,0.));
#599=DIRECTION('',(0.,-1.,0.));
#600=DIRECTION('',(0.,0.,-1.));
#601=DIRECTION('',(-1.,0.,0.));
#602=DIRECTION('',(0.,0.,-1.));
#603=DIRECTION('',(1.,0.,0.));
#604=CARTESIAN_POINT('',(0.,0.,0.));
#605=CARTESIAN_POINT('',(0.0065,0.,0.));
#606=CARTESIAN_POINT('',(0.0065,0.0125,0.));
#607=CARTESIAN_POINT('',(0.00550973193125843,0.0125,0.));
#608=CARTESIAN_POINT('',(-0.00550973193125843,0.0125,0.));
#609=CARTESIAN_POINT('',(0.00549017242748138,0.0114901724274814,0.));
#610=CARTESIAN_POINT('',(0.0065,0.0115097319312584,0.));
#611=CARTESIAN_POINT('',(0.0065,0.,0.));
#612=CARTESIAN_POINT('',(0.0065,-0.0115097319312584,0.));
#613=CARTESIAN_POINT('',(0.00549017242748138,-0.0114901724274814,0.));
#614=CARTESIAN_POINT('',(0.00550973193125843,-0.0125,0.));
#615=CARTESIAN_POINT('',(0.0065,-0.0125,0.));
#616=CARTESIAN_POINT('',(-0.00550973193125843,-0.0125,0.));
#617=CARTESIAN_POINT('',(-0.00549017242748138,-0.0114901724274814,0.));
#618=CARTESIAN_POINT('',(-0.0065,-0.0115097319312584,0.));
#619=CARTESIAN_POINT('',(-0.0065,0.,0.));
#620=CARTESIAN_POINT('',(-0.0065,0.0115097319312584,0.));
#621=CARTESIAN_POINT('',(-0.00549017242748138,0.0114901724274814,0.));
#622=CARTESIAN_POINT('',(2.16840434497101E-19,-0.004,0.));
#623=CARTESIAN_POINT('',(0.0006,-0.004,0.));
#624=CARTESIAN_POINT('',(-0.0006,-0.004,0.));
#625=CARTESIAN_POINT('',(0.0006,0.,0.));
#626=CARTESIAN_POINT('',(0.0006,0.004,0.));
#627=CARTESIAN_POINT('',(-3.25260651745652E-19,0.004,0.));
#628=CARTESIAN_POINT('',(-0.0006,0.004,0.));
#629=CARTESIAN_POINT('',(-0.0006,0.,0.));
#630=CARTESIAN_POINT('',(0.0065,0.00858885768467285,0.00913312581907319));
#631=CARTESIAN_POINT('',(-0.00521642287394549,0.00858885768467285,0.00913312581907319));
#632=CARTESIAN_POINT('',(-0.00512132548857116,0.00992756625678038,0.00980977887564365));
#633=CARTESIAN_POINT('',(-0.00532241930703871,0.00729225573653811,0.00837892200836096));
#634=CARTESIAN_POINT('',(0.0065,0.00729225573653811,0.00837892200836096));
#635=CARTESIAN_POINT('',(0.00532241930703871,0.00729225573653811,0.00837892200836096));
#636=CARTESIAN_POINT('',(0.00521642287394549,0.00858885768467285,0.00913312581907319));
#637=CARTESIAN_POINT('',(0.00512132548857115,0.00992756625678038,0.00980977887564365));
#638=CARTESIAN_POINT('',(0.0065,0.00992756625678038,0.00980977887564365));
#639=CARTESIAN_POINT('',(0.0065,0.00586022678022889,0.00793249948620095));
#640=CARTESIAN_POINT('',(-0.00538515990093303,0.00586022678022889,0.00793249948620095));
#641=CARTESIAN_POINT('',(-0.00545962677089331,0.00445692741456923,0.00740264017436485));
#642=CARTESIAN_POINT('',(0.0065,0.00445692741456923,0.00740264017436485));
#643=CARTESIAN_POINT('',(0.00545962677089331,0.00445692741456923,0.00740264017436485));
#644=CARTESIAN_POINT('',(0.00538515990093303,0.00586022678022889,0.00793249948620095));
#645=CARTESIAN_POINT('',(0.0065,0.00297085690549241,0.00719869301931849));
#646=CARTESIAN_POINT('',(-0.0054882896742987,0.00297085690549241,0.00719869301931849));
#647=CARTESIAN_POINT('',(-0.00552918444447221,0.00149935093563428,0.00690771160982203));
#648=CARTESIAN_POINT('',(0.0065,0.00149935093563428,0.00690771160982203));
#649=CARTESIAN_POINT('',(0.00552918444447221,0.00149935093563428,0.00690771160982203));
#650=CARTESIAN_POINT('',(0.0054882896742987,0.00297085690549241,0.00719869301931849));
#651=CARTESIAN_POINT('',(0.0065,1.15142270717961E-16,0.00695183384698862));
#652=CARTESIAN_POINT('',(-0.00552298346843188,1.15142270717961E-16,0.00695183384698862));
#653=CARTESIAN_POINT('',(-0.00552918444447221,-0.00149935093563429,0.00690771160982204));
#654=CARTESIAN_POINT('',(0.0065,-0.00149935093563429,0.00690771160982204));
#655=CARTESIAN_POINT('',(0.00552918444447221,-0.00149935093563429,0.00690771160982204));
#656=CARTESIAN_POINT('',(0.00552298346843188,1.15142270717961E-16,0.00695183384698862));
#657=CARTESIAN_POINT('',(0.0065,-0.00297085690549201,0.00719869301931843));
#658=CARTESIAN_POINT('',(-0.00548828967429871,-0.00297085690549201,0.00719869301931843));
#659=CARTESIAN_POINT('',(-0.00545962677089331,-0.00445692741456925,0.00740264017436485));
#660=CARTESIAN_POINT('',(0.0065,-0.00445692741456925,0.00740264017436485));
#661=CARTESIAN_POINT('',(0.00545962677089331,-0.00445692741456925,0.00740264017436485));
#662=CARTESIAN_POINT('',(0.00548828967429871,-0.00297085690549201,0.00719869301931843));
#663=CARTESIAN_POINT('',(0.0065,-0.00586022678022876,0.00793249948620089));
#664=CARTESIAN_POINT('',(-0.00538515990093304,-0.00586022678022876,0.00793249948620089));
#665=CARTESIAN_POINT('',(-0.00532241930703871,-0.00729225573653811,0.00837892200836099));
#666=CARTESIAN_POINT('',(0.0065,-0.00729225573653811,0.00837892200836099));
#667=CARTESIAN_POINT('',(0.00532241930703871,-0.00729225573653811,0.00837892200836099));
#668=CARTESIAN_POINT('',(0.00538515990093304,-0.00586022678022876,0.00793249948620089));
#669=CARTESIAN_POINT('',(0.0065,-0.00858885768467319,0.00913312581907336));
#670=CARTESIAN_POINT('',(-0.00521642287394547,-0.00858885768467319,0.00913312581907336));
#671=CARTESIAN_POINT('',(-0.00512132548857116,-0.00992756625678041,0.00980977887564365));
#672=CARTESIAN_POINT('',(0.0065,-0.00992756625678041,0.00980977887564365));
#673=CARTESIAN_POINT('',(0.00512132548857116,-0.00992756625678041,0.00980977887564365));
#674=CARTESIAN_POINT('',(0.00521642287394547,-0.00858885768467319,0.00913312581907336));
#675=CARTESIAN_POINT('',(0.0065,-0.0110819065558619,0.0107676402820676));
#676=CARTESIAN_POINT('',(0.00519689773047817,-0.0111968977304782,0.0092720544337258));
#677=CARTESIAN_POINT('',(0.0042066296617366,-0.0111968977304782,0.0092720544337258));
#678=CARTESIAN_POINT('',(-0.0042066296617366,-0.0111968977304782,0.0092720544337258));
#679=CARTESIAN_POINT('',(0.0042066296617366,-0.0111968977304782,0.0092720544337258));
#680=CARTESIAN_POINT('',(0.00448506125777292,-0.0111968977304782,0.0092720544337258));
#681=CARTESIAN_POINT('',(0.00504822271664811,-0.0109538158634306,0.00922285585130377));
#682=CARTESIAN_POINT('',(0.00517723316317616,-0.0103824666348206,0.00941197510051041));
#683=CARTESIAN_POINT('',(0.00515333744703594,-0.0101630693782944,0.00958200195562917));
#684=CARTESIAN_POINT('',(0.00515333744703593,-0.0101630693782944,0.00958200195562918));
#685=CARTESIAN_POINT('',(0.00498670684698312,-0.0110819065558619,0.0107676402820676));
#686=CARTESIAN_POINT('',(-0.00498670684698312,-0.0110819065558619,0.0107676402820676));
#687=CARTESIAN_POINT('',(-0.00515333744703593,-0.0101630693782944,0.00958200195562918));
#688=CARTESIAN_POINT('',(-0.00515333744703593,-0.0101630693782944,0.00958200195562918));
#689=CARTESIAN_POINT('',(-0.00517717872698773,-0.0103819668318298,0.00941236243411724));
#690=CARTESIAN_POINT('',(-0.00505188028322748,-0.01094990006541,0.00922325461393273));
#691=CARTESIAN_POINT('',(-0.0044850147930057,-0.0111968977304782,0.0092720544337258));
#692=CARTESIAN_POINT('',(-0.0042066296617366,-0.0111968977304782,0.0092720544337258));
#693=CARTESIAN_POINT('',(0.0065,-0.0125,0.));
#694=CARTESIAN_POINT('',(0.00552854813021494,-0.0125188161989565,-0.000133884212345517));
#695=CARTESIAN_POINT('',(-0.00552854813021494,-0.0125188161989565,-0.000133884212345517));
#696=CARTESIAN_POINT('',(0.0065,0.0125,0.));
#697=CARTESIAN_POINT('',(0.00519689773047817,0.0111968977304782,0.0092720544337258));
#698=CARTESIAN_POINT('',(0.0042066296617366,0.0111968977304782,0.0092720544337258));
#699=CARTESIAN_POINT('',(-0.0042066296617366,0.0111968977304782,0.0092720544337258));
#700=CARTESIAN_POINT('',(0.00552854813021494,0.0125188161989565,-0.000133884212345517));
#701=CARTESIAN_POINT('',(-0.00528153361550329,0.0122718016842449,0.00162371538662321));
#702=CARTESIAN_POINT('',(0.0065,0.0110819065558618,0.0107676402820676));
#703=CARTESIAN_POINT('',(0.00498670684698312,0.0110819065558618,0.0107676402820676));
#704=CARTESIAN_POINT('',(0.00515333744703593,0.0101630693782944,0.00958200195562916));
#705=CARTESIAN_POINT('',(0.00515333744703593,0.0101630693782944,0.00958200195562916));
#706=CARTESIAN_POINT('',(0.00517717872698773,0.0103819668318298,0.00941236243411723));
#707=CARTESIAN_POINT('',(0.00505188028322747,0.01094990006541,0.00922325461393273));
#708=CARTESIAN_POINT('',(0.0044850147930057,0.0111968977304782,0.0092720544337258));
#709=CARTESIAN_POINT('',(0.0042066296617366,0.0111968977304782,0.0092720544337258));
#710=CARTESIAN_POINT('',(-0.0042066296617366,0.0111968977304782,0.0092720544337258));
#711=CARTESIAN_POINT('',(-0.00448506125777292,0.0111968977304782,0.0092720544337258));
#712=CARTESIAN_POINT('',(-0.00504822271664812,0.0109538158634307,0.00922285585130377));
#713=CARTESIAN_POINT('',(-0.00517723316317616,0.0103824666348206,0.00941197510051039));
#714=CARTESIAN_POINT('',(-0.00515333744703594,0.0101630693782944,0.00958200195562915));
#715=CARTESIAN_POINT('',(-0.00515333744703593,0.0101630693782944,0.00958200195562916));
#716=CARTESIAN_POINT('',(-0.00498670684698312,0.0110819065558618,0.0107676402820676));
#717=CARTESIAN_POINT('',(0.0065,0.,0.));
#718=CARTESIAN_POINT('',(0.00521571392943468,0.0102254458606931,0.00913817022138028));
#719=CARTESIAN_POINT('',(0.006281302242503,-0.0112910341737614,0.00155611540204749));
#720=CARTESIAN_POINT('',(-0.0065,0.,0.));
#721=CARTESIAN_POINT('',(-0.00521571392943468,-0.0102254458606931,0.00913817022138028));
#722=CARTESIAN_POINT('',(-0.006281302242503,0.0112910341737614,0.00155611540204749));
#723=CARTESIAN_POINT('',(0.00529103417376143,0.0112910341737614,0.00141694230108742));
#724=CARTESIAN_POINT('',(0.00552854813021494,-0.0115285481302149,-0.000273057313305582));
#725=CARTESIAN_POINT('',(-0.00529103417376143,-0.0112910341737614,0.00141694230108742));
#726=CARTESIAN_POINT('',(-0.00528153361550329,0.0112815336155033,0.00148454228566314));
#727=CARTESIAN_POINT('',(0.0006,0.,0.0035));
#728=CARTESIAN_POINT('',(0.0006,-0.004,0.0035));
#729=CARTESIAN_POINT('',(0.0006,-0.004,0.0035));
#730=CARTESIAN_POINT('',(0.0006,0.,0.0035));
#731=CARTESIAN_POINT('',(0.0006,0.004,0.0035));
#732=CARTESIAN_POINT('',(0.0006,0.004,0.0035));
#733=CARTESIAN_POINT('',(2.16840434497101E-19,-0.004,0.0035));
#734=CARTESIAN_POINT('',(-0.0006,-0.004,0.0035));
#735=CARTESIAN_POINT('',(-0.0006,-0.004,0.0035));
#736=CARTESIAN_POINT('',(2.16840434497101E-19,-0.004,0.0035));
#737=CARTESIAN_POINT('',(-0.0006,0.,0.0035));
#738=CARTESIAN_POINT('',(-0.0006,0.004,0.0035));
#739=CARTESIAN_POINT('',(-0.0006,0.004,0.0035));
#740=CARTESIAN_POINT('',(-0.0006,0.,0.0035));
#741=CARTESIAN_POINT('',(-3.25260651745652E-19,0.004,0.0035));
#742=CARTESIAN_POINT('',(-3.25260651745652E-19,0.004,0.0035));
#743=CARTESIAN_POINT('',(0.,0.,0.0035));
#744=MECHANICAL_DESIGN_GEOMETRIC_PRESENTATION_REPRESENTATION('',(#421),
#745);
#745=(
GEOMETRIC_REPRESENTATION_CONTEXT(3)
GLOBAL_UNCERTAINTY_ASSIGNED_CONTEXT((#746))
GLOBAL_UNIT_ASSIGNED_CONTEXT((#749,#748,#747))
REPRESENTATION_CONTEXT('Fader Cap','TOP_LEVEL_ASSEMBLY_PART')
);
#746=UNCERTAINTY_MEASURE_WITH_UNIT(LENGTH_MEASURE(2.E-5),#749,
'DISTANCE_ACCURACY_VALUE','Maximum Tolerance applied to model');
#747=(
NAMED_UNIT(*)
SI_UNIT($,.STERADIAN.)
SOLID_ANGLE_UNIT()
);
#748=(
NAMED_UNIT(*)
PLANE_ANGLE_UNIT()
SI_UNIT($,.RADIAN.)
);
#749=(
LENGTH_UNIT()
NAMED_UNIT(*)
SI_UNIT($,.METRE.)
);
#750=PRODUCT_DEFINITION_SHAPE('','',#751);
#751=PRODUCT_DEFINITION('','',#753,#752);
#752=PRODUCT_DEFINITION_CONTEXT('',#759,'design');
#753=PRODUCT_DEFINITION_FORMATION_WITH_SPECIFIED_SOURCE('','',#755,
 .NOT_KNOWN.);
#754=PRODUCT_RELATED_PRODUCT_CATEGORY('','',(#755));
#755=PRODUCT('Fader Cap','Fader Cap','Fader Cap',(#757));
#756=PRODUCT_CATEGORY('','');
#757=PRODUCT_CONTEXT('',#759,'mechanical');
#758=APPLICATION_PROTOCOL_DEFINITION('international standard',
'ap242_managed_model_based_3d_engineering',2020,#759);
#759=APPLICATION_CONTEXT('managed model based 3d engineering');
ENDSEC;
END-ISO-10303-21;
