ISO-10303-21;
HEADER;
/* Generated by software containing ST-Developer
 * from STEP Tools, Inc. (www.steptools.com) 
 */
/* OPTION: using custom renumber hook */

FILE_DESCRIPTION(
/* description */ ('STEP AP242 Edition 2',
'CAx-IF Rec.Pracs.---Representation and Presentation of Product Manufa
cturing Information (PMI)---4.0---2014-10-13',
'CAx-IF Rec.Pracs.---3D Tessellated Geometry---0.4---2014-09-14','2;1',
'CAx-IF Rec.Pracs.---User Defined Attributes---1.5---2016-08-15'),
/* implementation_level */ '2;1');

FILE_NAME(
/* name */ 'PCB Mount - PCB Mount',
/* time_stamp */ '2026-09-30T14:08:05Z',
/* author */ (''),
/* organization */ (''),
/* preprocessor_version */ 'ST-DEVELOPER v20',
/* originating_system */ 'ONSHAPE BY PTC INC, 1.221',
/* authorisation */ '  ');

FILE_SCHEMA (('AP242_MANAGED_MODEL_BASED_3D_ENGINEERING_MIM_LF { 1 0 10303 442 3 1 4 }'));
ENDSEC;

DATA;
#10=SHAPE_REPRESENTATION_RELATIONSHIP('','',#647,#11);
#11=ADVANCED_BREP_SHAPE_REPRESENTATION('',(#645),#1081);
#12=CYLINDRICAL_SURFACE('',#685,0.0015);
#13=CYLINDRICAL_SURFACE('',#686,0.0015);
#14=CYLINDRICAL_SURFACE('',#687,0.001);
#15=CYLINDRICAL_SURFACE('',#688,0.001);
#16=CYLINDRICAL_SURFACE('',#689,0.001);
#17=CYLINDRICAL_SURFACE('',#690,0.001);
#18=CYLINDRICAL_SURFACE('',#691,0.004);
#19=CYLINDRICAL_SURFACE('',#692,0.004);
#20=CYLINDRICAL_SURFACE('',#697,0.002);
#21=CYLINDRICAL_SURFACE('',#701,0.002);
#22=CYLINDRICAL_SURFACE('',#705,0.001);
#23=CYLINDRICAL_SURFACE('',#706,0.001);
#24=CYLINDRICAL_SURFACE('',#707,0.00075);
#25=CYLINDRICAL_SURFACE('',#710,0.00075);
#26=CIRCLE('',#651,0.004);
#27=CIRCLE('',#652,0.004);
#28=CIRCLE('',#653,0.001);
#29=CIRCLE('',#654,0.001);
#30=CIRCLE('',#655,0.0015);
#31=CIRCLE('',#656,0.0015);
#32=CIRCLE('',#657,0.001);
#33=CIRCLE('',#658,0.001);
#34=CIRCLE('',#661,0.002);
#35=CIRCLE('',#670,0.002);
#36=CIRCLE('',#694,0.00075);
#37=CIRCLE('',#696,0.00075);
#38=CIRCLE('',#698,0.002);
#39=CIRCLE('',#700,0.001);
#40=CIRCLE('',#702,0.002);
#41=CIRCLE('',#704,0.001);
#42=CIRCLE('',#708,0.00075);
#43=CIRCLE('',#711,0.00075);
#44=LINE('',#903,#100);
#45=LINE('',#908,#101);
#46=LINE('',#912,#102);
#47=LINE('',#914,#103);
#48=LINE('',#916,#104);
#49=LINE('',#920,#105);
#50=LINE('',#924,#106);
#51=LINE('',#926,#107);
#52=LINE('',#928,#108);
#53=LINE('',#932,#109);
#54=LINE('',#936,#110);
#55=LINE('',#938,#111);
#56=LINE('',#940,#112);
#57=LINE('',#944,#113);
#58=LINE('',#948,#114);
#59=LINE('',#950,#115);
#60=LINE('',#956,#116);
#61=LINE('',#961,#117);
#62=LINE('',#963,#118);
#63=LINE('',#965,#119);
#64=LINE('',#969,#120);
#65=LINE('',#973,#121);
#66=LINE('',#975,#122);
#67=LINE('',#977,#123);
#68=LINE('',#981,#124);
#69=LINE('',#985,#125);
#70=LINE('',#987,#126);
#71=LINE('',#989,#127);
#72=LINE('',#993,#128);
#73=LINE('',#997,#129);
#74=LINE('',#999,#130);
#75=LINE('',#1001,#131);
#76=LINE('',#1007,#132);
#77=LINE('',#1008,#133);
#78=LINE('',#1010,#134);
#79=LINE('',#1011,#135);
#80=LINE('',#1013,#136);
#81=LINE('',#1014,#137);
#82=LINE('',#1016,#138);
#83=LINE('',#1018,#139);
#84=LINE('',#1020,#140);
#85=LINE('',#1021,#141);
#86=LINE('',#1023,#142);
#87=LINE('',#1024,#143);
#88=LINE('',#1026,#144);
#89=LINE('',#1027,#145);
#90=LINE('',#1029,#146);
#91=LINE('',#1030,#147);
#92=LINE('',#1032,#148);
#93=LINE('',#1033,#149);
#94=LINE('',#1035,#150);
#95=LINE('',#1036,#151);
#96=LINE('',#1038,#152);
#97=LINE('',#1039,#153);
#98=LINE('',#1041,#154);
#99=LINE('',#1042,#155);
#100=VECTOR('',#719,1.);
#101=VECTOR('',#722,1.);
#102=VECTOR('',#725,1.);
#103=VECTOR('',#726,1.);
#104=VECTOR('',#727,1.);
#105=VECTOR('',#730,1.);
#106=VECTOR('',#733,1.);
#107=VECTOR('',#734,1.);
#108=VECTOR('',#735,1.);
#109=VECTOR('',#738,1.);
#110=VECTOR('',#741,1.);
#111=VECTOR('',#742,1.);
#112=VECTOR('',#743,1.);
#113=VECTOR('',#746,1.);
#114=VECTOR('',#749,1.);
#115=VECTOR('',#750,1.);
#116=VECTOR('',#757,1.);
#117=VECTOR('',#760,1.);
#118=VECTOR('',#761,1.);
#119=VECTOR('',#762,1.);
#120=VECTOR('',#765,1.);
#121=VECTOR('',#768,1.);
#122=VECTOR('',#769,1.);
#123=VECTOR('',#770,1.);
#124=VECTOR('',#773,1.);
#125=VECTOR('',#776,1.);
#126=VECTOR('',#777,1.);
#127=VECTOR('',#778,1.);
#128=VECTOR('',#781,1.);
#129=VECTOR('',#784,1.);
#130=VECTOR('',#785,1.);
#131=VECTOR('',#786,1.);
#132=VECTOR('',#793,1.);
#133=VECTOR('',#794,1.);
#134=VECTOR('',#797,1.);
#135=VECTOR('',#798,1.);
#136=VECTOR('',#801,1.);
#137=VECTOR('',#802,1.);
#138=VECTOR('',#805,1.);
#139=VECTOR('',#808,1.);
#140=VECTOR('',#811,1.);
#141=VECTOR('',#812,1.);
#142=VECTOR('',#815,1.);
#143=VECTOR('',#816,1.);
#144=VECTOR('',#819,1.);
#145=VECTOR('',#820,1.);
#146=VECTOR('',#823,1.);
#147=VECTOR('',#824,1.);
#148=VECTOR('',#827,1.);
#149=VECTOR('',#828,1.);
#150=VECTOR('',#831,1.);
#151=VECTOR('',#832,1.);
#152=VECTOR('',#835,1.);
#153=VECTOR('',#836,1.);
#154=VECTOR('',#839,1.);
#155=VECTOR('',#840,1.);
#156=ORIENTED_EDGE('',*,*,#324,.T.);
#157=ORIENTED_EDGE('',*,*,#325,.F.);
#158=ORIENTED_EDGE('',*,*,#326,.T.);
#159=ORIENTED_EDGE('',*,*,#327,.T.);
#160=ORIENTED_EDGE('',*,*,#328,.T.);
#161=ORIENTED_EDGE('',*,*,#329,.T.);
#162=ORIENTED_EDGE('',*,*,#330,.T.);
#163=ORIENTED_EDGE('',*,*,#331,.T.);
#164=ORIENTED_EDGE('',*,*,#332,.T.);
#165=ORIENTED_EDGE('',*,*,#333,.T.);
#166=ORIENTED_EDGE('',*,*,#334,.T.);
#167=ORIENTED_EDGE('',*,*,#335,.T.);
#168=ORIENTED_EDGE('',*,*,#336,.T.);
#169=ORIENTED_EDGE('',*,*,#337,.T.);
#170=ORIENTED_EDGE('',*,*,#338,.T.);
#171=ORIENTED_EDGE('',*,*,#339,.T.);
#172=ORIENTED_EDGE('',*,*,#340,.T.);
#173=ORIENTED_EDGE('',*,*,#341,.F.);
#174=ORIENTED_EDGE('',*,*,#342,.F.);
#175=ORIENTED_EDGE('',*,*,#343,.F.);
#176=ORIENTED_EDGE('',*,*,#344,.T.);
#177=ORIENTED_EDGE('',*,*,#345,.F.);
#178=ORIENTED_EDGE('',*,*,#346,.T.);
#179=ORIENTED_EDGE('',*,*,#347,.F.);
#180=ORIENTED_EDGE('',*,*,#348,.F.);
#181=ORIENTED_EDGE('',*,*,#349,.F.);
#182=ORIENTED_EDGE('',*,*,#350,.T.);
#183=ORIENTED_EDGE('',*,*,#351,.T.);
#184=ORIENTED_EDGE('',*,*,#352,.T.);
#185=ORIENTED_EDGE('',*,*,#353,.T.);
#186=ORIENTED_EDGE('',*,*,#354,.T.);
#187=ORIENTED_EDGE('',*,*,#355,.T.);
#188=ORIENTED_EDGE('',*,*,#356,.T.);
#189=ORIENTED_EDGE('',*,*,#357,.T.);
#190=ORIENTED_EDGE('',*,*,#358,.T.);
#191=ORIENTED_EDGE('',*,*,#359,.T.);
#192=ORIENTED_EDGE('',*,*,#360,.F.);
#193=ORIENTED_EDGE('',*,*,#361,.T.);
#194=ORIENTED_EDGE('',*,*,#362,.F.);
#195=ORIENTED_EDGE('',*,*,#363,.T.);
#196=ORIENTED_EDGE('',*,*,#364,.F.);
#197=ORIENTED_EDGE('',*,*,#365,.F.);
#198=ORIENTED_EDGE('',*,*,#366,.T.);
#199=ORIENTED_EDGE('',*,*,#367,.F.);
#200=ORIENTED_EDGE('',*,*,#368,.T.);
#201=ORIENTED_EDGE('',*,*,#369,.F.);
#202=ORIENTED_EDGE('',*,*,#370,.T.);
#203=ORIENTED_EDGE('',*,*,#371,.F.);
#204=ORIENTED_EDGE('',*,*,#372,.F.);
#205=ORIENTED_EDGE('',*,*,#373,.F.);
#206=ORIENTED_EDGE('',*,*,#374,.T.);
#207=ORIENTED_EDGE('',*,*,#375,.F.);
#208=ORIENTED_EDGE('',*,*,#353,.F.);
#209=ORIENTED_EDGE('',*,*,#376,.T.);
#210=ORIENTED_EDGE('',*,*,#337,.F.);
#211=ORIENTED_EDGE('',*,*,#377,.T.);
#212=ORIENTED_EDGE('',*,*,#351,.F.);
#213=ORIENTED_EDGE('',*,*,#378,.T.);
#214=ORIENTED_EDGE('',*,*,#339,.F.);
#215=ORIENTED_EDGE('',*,*,#379,.T.);
#216=ORIENTED_EDGE('',*,*,#380,.T.);
#217=ORIENTED_EDGE('',*,*,#373,.T.);
#218=ORIENTED_EDGE('',*,*,#381,.F.);
#219=ORIENTED_EDGE('',*,*,#341,.T.);
#220=ORIENTED_EDGE('',*,*,#381,.T.);
#221=ORIENTED_EDGE('',*,*,#372,.T.);
#222=ORIENTED_EDGE('',*,*,#382,.F.);
#223=ORIENTED_EDGE('',*,*,#342,.T.);
#224=ORIENTED_EDGE('',*,*,#382,.T.);
#225=ORIENTED_EDGE('',*,*,#371,.T.);
#226=ORIENTED_EDGE('',*,*,#383,.T.);
#227=ORIENTED_EDGE('',*,*,#343,.T.);
#228=ORIENTED_EDGE('',*,*,#384,.T.);
#229=ORIENTED_EDGE('',*,*,#369,.T.);
#230=ORIENTED_EDGE('',*,*,#385,.T.);
#231=ORIENTED_EDGE('',*,*,#345,.T.);
#232=ORIENTED_EDGE('',*,*,#386,.T.);
#233=ORIENTED_EDGE('',*,*,#367,.T.);
#234=ORIENTED_EDGE('',*,*,#387,.F.);
#235=ORIENTED_EDGE('',*,*,#347,.T.);
#236=ORIENTED_EDGE('',*,*,#388,.T.);
#237=ORIENTED_EDGE('',*,*,#365,.T.);
#238=ORIENTED_EDGE('',*,*,#389,.T.);
#239=ORIENTED_EDGE('',*,*,#325,.T.);
#240=ORIENTED_EDGE('',*,*,#363,.F.);
#241=ORIENTED_EDGE('',*,*,#390,.T.);
#242=ORIENTED_EDGE('',*,*,#327,.F.);
#243=ORIENTED_EDGE('',*,*,#391,.T.);
#244=ORIENTED_EDGE('',*,*,#361,.F.);
#245=ORIENTED_EDGE('',*,*,#392,.F.);
#246=ORIENTED_EDGE('',*,*,#329,.F.);
#247=ORIENTED_EDGE('',*,*,#393,.T.);
#248=ORIENTED_EDGE('',*,*,#359,.F.);
#249=ORIENTED_EDGE('',*,*,#394,.T.);
#250=ORIENTED_EDGE('',*,*,#331,.F.);
#251=ORIENTED_EDGE('',*,*,#395,.T.);
#252=ORIENTED_EDGE('',*,*,#357,.F.);
#253=ORIENTED_EDGE('',*,*,#396,.T.);
#254=ORIENTED_EDGE('',*,*,#333,.F.);
#255=ORIENTED_EDGE('',*,*,#397,.T.);
#256=ORIENTED_EDGE('',*,*,#355,.F.);
#257=ORIENTED_EDGE('',*,*,#398,.F.);
#258=ORIENTED_EDGE('',*,*,#335,.F.);
#259=ORIENTED_EDGE('',*,*,#399,.T.);
#260=ORIENTED_EDGE('',*,*,#354,.F.);
#261=ORIENTED_EDGE('',*,*,#377,.F.);
#262=ORIENTED_EDGE('',*,*,#336,.F.);
#263=ORIENTED_EDGE('',*,*,#398,.T.);
#264=ORIENTED_EDGE('',*,*,#374,.F.);
#265=ORIENTED_EDGE('',*,*,#380,.F.);
#266=ORIENTED_EDGE('',*,*,#340,.F.);
#267=ORIENTED_EDGE('',*,*,#378,.F.);
#268=ORIENTED_EDGE('',*,*,#352,.F.);
#269=ORIENTED_EDGE('',*,*,#379,.F.);
#270=ORIENTED_EDGE('',*,*,#338,.F.);
#271=ORIENTED_EDGE('',*,*,#376,.F.);
#272=ORIENTED_EDGE('',*,*,#368,.F.);
#273=ORIENTED_EDGE('',*,*,#386,.F.);
#274=ORIENTED_EDGE('',*,*,#346,.F.);
#275=ORIENTED_EDGE('',*,*,#385,.F.);
#276=ORIENTED_EDGE('',*,*,#370,.F.);
#277=ORIENTED_EDGE('',*,*,#384,.F.);
#278=ORIENTED_EDGE('',*,*,#344,.F.);
#279=ORIENTED_EDGE('',*,*,#383,.F.);
#280=ORIENTED_EDGE('',*,*,#356,.F.);
#281=ORIENTED_EDGE('',*,*,#399,.F.);
#282=ORIENTED_EDGE('',*,*,#334,.F.);
#283=ORIENTED_EDGE('',*,*,#396,.F.);
#284=ORIENTED_EDGE('',*,*,#358,.F.);
#285=ORIENTED_EDGE('',*,*,#397,.F.);
#286=ORIENTED_EDGE('',*,*,#332,.F.);
#287=ORIENTED_EDGE('',*,*,#394,.F.);
#288=ORIENTED_EDGE('',*,*,#389,.F.);
#289=ORIENTED_EDGE('',*,*,#364,.T.);
#290=ORIENTED_EDGE('',*,*,#391,.F.);
#291=ORIENTED_EDGE('',*,*,#326,.F.);
#292=ORIENTED_EDGE('',*,*,#390,.F.);
#293=ORIENTED_EDGE('',*,*,#362,.T.);
#294=ORIENTED_EDGE('',*,*,#393,.F.);
#295=ORIENTED_EDGE('',*,*,#328,.F.);
#296=ORIENTED_EDGE('',*,*,#400,.T.);
#297=ORIENTED_EDGE('',*,*,#366,.F.);
#298=ORIENTED_EDGE('',*,*,#388,.F.);
#299=ORIENTED_EDGE('',*,*,#348,.T.);
#300=ORIENTED_EDGE('',*,*,#387,.T.);
#301=ORIENTED_EDGE('',*,*,#401,.F.);
#302=ORIENTED_EDGE('',*,*,#360,.T.);
#303=ORIENTED_EDGE('',*,*,#395,.F.);
#304=ORIENTED_EDGE('',*,*,#330,.F.);
#305=ORIENTED_EDGE('',*,*,#392,.T.);
#306=ORIENTED_EDGE('',*,*,#402,.T.);
#307=ORIENTED_EDGE('',*,*,#350,.F.);
#308=ORIENTED_EDGE('',*,*,#402,.F.);
#309=ORIENTED_EDGE('',*,*,#403,.T.);
#310=ORIENTED_EDGE('',*,*,#404,.F.);
#311=ORIENTED_EDGE('',*,*,#375,.T.);
#312=ORIENTED_EDGE('',*,*,#405,.F.);
#313=ORIENTED_EDGE('',*,*,#404,.T.);
#314=ORIENTED_EDGE('',*,*,#349,.T.);
#315=ORIENTED_EDGE('',*,*,#405,.T.);
#316=ORIENTED_EDGE('',*,*,#324,.F.);
#317=ORIENTED_EDGE('',*,*,#403,.F.);
#318=ORIENTED_EDGE('',*,*,#406,.F.);
#319=ORIENTED_EDGE('',*,*,#401,.T.);
#320=ORIENTED_EDGE('',*,*,#406,.T.);
#321=ORIENTED_EDGE('',*,*,#407,.T.);
#322=ORIENTED_EDGE('',*,*,#400,.F.);
#323=ORIENTED_EDGE('',*,*,#407,.F.);
#324=EDGE_CURVE('',#408,#408,#468,.F.);
#325=EDGE_CURVE('',#409,#410,#44,.T.);
#326=EDGE_CURVE('',#409,#411,#26,.T.);
#327=EDGE_CURVE('',#411,#412,#45,.T.);
#328=EDGE_CURVE('',#412,#413,#27,.T.);
#329=EDGE_CURVE('',#413,#414,#46,.T.);
#330=EDGE_CURVE('',#414,#415,#47,.T.);
#331=EDGE_CURVE('',#415,#416,#48,.T.);
#332=EDGE_CURVE('',#416,#417,#28,.F.);
#333=EDGE_CURVE('',#417,#418,#49,.T.);
#334=EDGE_CURVE('',#418,#419,#29,.F.);
#335=EDGE_CURVE('',#419,#420,#50,.T.);
#336=EDGE_CURVE('',#420,#421,#51,.T.);
#337=EDGE_CURVE('',#421,#422,#52,.T.);
#338=EDGE_CURVE('',#422,#423,#30,.F.);
#339=EDGE_CURVE('',#423,#424,#53,.T.);
#340=EDGE_CURVE('',#424,#425,#31,.F.);
#341=EDGE_CURVE('',#426,#425,#54,.T.);
#342=EDGE_CURVE('',#427,#426,#55,.T.);
#343=EDGE_CURVE('',#428,#427,#56,.T.);
#344=EDGE_CURVE('',#428,#429,#32,.F.);
#345=EDGE_CURVE('',#430,#429,#57,.T.);
#346=EDGE_CURVE('',#430,#431,#33,.F.);
#347=EDGE_CURVE('',#432,#431,#58,.T.);
#348=EDGE_CURVE('',#410,#432,#59,.T.);
#349=EDGE_CURVE('',#433,#433,#469,.T.);
#350=EDGE_CURVE('',#434,#434,#34,.T.);
#351=EDGE_CURVE('',#435,#436,#60,.T.);
#352=EDGE_CURVE('',#436,#437,#470,.F.);
#353=EDGE_CURVE('',#437,#438,#61,.T.);
#354=EDGE_CURVE('',#438,#439,#62,.T.);
#355=EDGE_CURVE('',#439,#440,#63,.T.);
#356=EDGE_CURVE('',#440,#441,#471,.F.);
#357=EDGE_CURVE('',#441,#442,#64,.T.);
#358=EDGE_CURVE('',#442,#443,#472,.F.);
#359=EDGE_CURVE('',#443,#444,#65,.T.);
#360=EDGE_CURVE('',#445,#444,#66,.T.);
#361=EDGE_CURVE('',#445,#446,#67,.T.);
#362=EDGE_CURVE('',#447,#446,#473,.F.);
#363=EDGE_CURVE('',#447,#448,#68,.T.);
#364=EDGE_CURVE('',#449,#448,#474,.F.);
#365=EDGE_CURVE('',#450,#449,#69,.T.);
#366=EDGE_CURVE('',#450,#451,#70,.T.);
#367=EDGE_CURVE('',#452,#451,#71,.T.);
#368=EDGE_CURVE('',#452,#453,#475,.F.);
#369=EDGE_CURVE('',#454,#453,#72,.T.);
#370=EDGE_CURVE('',#454,#455,#476,.F.);
#371=EDGE_CURVE('',#456,#455,#73,.T.);
#372=EDGE_CURVE('',#457,#456,#74,.T.);
#373=EDGE_CURVE('',#458,#457,#75,.T.);
#374=EDGE_CURVE('',#458,#435,#477,.F.);
#375=EDGE_CURVE('',#459,#459,#35,.T.);
#376=EDGE_CURVE('',#437,#422,#76,.F.);
#377=EDGE_CURVE('',#421,#438,#77,.T.);
#378=EDGE_CURVE('',#435,#424,#78,.F.);
#379=EDGE_CURVE('',#423,#436,#79,.T.);
#380=EDGE_CURVE('',#425,#458,#80,.T.);
#381=EDGE_CURVE('',#426,#457,#81,.T.);
#382=EDGE_CURVE('',#427,#456,#82,.T.);
#383=EDGE_CURVE('',#455,#428,#83,.F.);
#384=EDGE_CURVE('',#429,#454,#84,.T.);
#385=EDGE_CURVE('',#453,#430,#85,.F.);
#386=EDGE_CURVE('',#431,#452,#86,.T.);
#387=EDGE_CURVE('',#432,#451,#87,.T.);
#388=EDGE_CURVE('',#410,#450,#88,.T.);
#389=EDGE_CURVE('',#449,#409,#89,.F.);
#390=EDGE_CURVE('',#447,#412,#90,.F.);
#391=EDGE_CURVE('',#411,#448,#91,.T.);
#392=EDGE_CURVE('',#414,#445,#92,.T.);
#393=EDGE_CURVE('',#413,#446,#93,.T.);
#394=EDGE_CURVE('',#443,#416,#94,.F.);
#395=EDGE_CURVE('',#415,#444,#95,.T.);
#396=EDGE_CURVE('',#441,#418,#96,.F.);
#397=EDGE_CURVE('',#417,#442,#97,.T.);
#398=EDGE_CURVE('',#420,#439,#98,.T.);
#399=EDGE_CURVE('',#419,#440,#99,.T.);
#400=EDGE_CURVE('',#460,#460,#36,.T.);
#401=EDGE_CURVE('',#461,#461,#37,.T.);
#402=EDGE_CURVE('',#462,#462,#38,.T.);
#403=EDGE_CURVE('',#463,#463,#39,.F.);
#404=EDGE_CURVE('',#464,#464,#40,.T.);
#405=EDGE_CURVE('',#465,#465,#41,.T.);
#406=EDGE_CURVE('',#466,#466,#42,.T.);
#407=EDGE_CURVE('',#467,#467,#43,.T.);
#408=VERTEX_POINT('',#902);
#409=VERTEX_POINT('',#904);
#410=VERTEX_POINT('',#905);
#411=VERTEX_POINT('',#907);
#412=VERTEX_POINT('',#909);
#413=VERTEX_POINT('',#911);
#414=VERTEX_POINT('',#913);
#415=VERTEX_POINT('',#915);
#416=VERTEX_POINT('',#917);
#417=VERTEX_POINT('',#919);
#418=VERTEX_POINT('',#921);
#419=VERTEX_POINT('',#923);
#420=VERTEX_POINT('',#925);
#421=VERTEX_POINT('',#927);
#422=VERTEX_POINT('',#929);
#423=VERTEX_POINT('',#931);
#424=VERTEX_POINT('',#933);
#425=VERTEX_POINT('',#935);
#426=VERTEX_POINT('',#937);
#427=VERTEX_POINT('',#939);
#428=VERTEX_POINT('',#941);
#429=VERTEX_POINT('',#943);
#430=VERTEX_POINT('',#945);
#431=VERTEX_POINT('',#947);
#432=VERTEX_POINT('',#949);
#433=VERTEX_POINT('',#952);
#434=VERTEX_POINT('',#955);
#435=VERTEX_POINT('',#957);
#436=VERTEX_POINT('',#958);
#437=VERTEX_POINT('',#960);
#438=VERTEX_POINT('',#962);
#439=VERTEX_POINT('',#964);
#440=VERTEX_POINT('',#966);
#441=VERTEX_POINT('',#968);
#442=VERTEX_POINT('',#970);
#443=VERTEX_POINT('',#972);
#444=VERTEX_POINT('',#974);
#445=VERTEX_POINT('',#976);
#446=VERTEX_POINT('',#978);
#447=VERTEX_POINT('',#980);
#448=VERTEX_POINT('',#982);
#449=VERTEX_POINT('',#984);
#450=VERTEX_POINT('',#986);
#451=VERTEX_POINT('',#988);
#452=VERTEX_POINT('',#990);
#453=VERTEX_POINT('',#992);
#454=VERTEX_POINT('',#994);
#455=VERTEX_POINT('',#996);
#456=VERTEX_POINT('',#998);
#457=VERTEX_POINT('',#1000);
#458=VERTEX_POINT('',#1002);
#459=VERTEX_POINT('',#1005);
#460=VERTEX_POINT('',#1054);
#461=VERTEX_POINT('',#1057);
#462=VERTEX_POINT('',#1060);
#463=VERTEX_POINT('',#1063);
#464=VERTEX_POINT('',#1066);
#465=VERTEX_POINT('',#1069);
#466=VERTEX_POINT('',#1074);
#467=VERTEX_POINT('',#1078);
#468=ELLIPSE('',#650,0.00101735046946424,0.001);
#469=ELLIPSE('',#659,0.00101735046946424,0.001);
#470=ELLIPSE('',#662,0.00152602570419636,0.0015);
#471=ELLIPSE('',#663,0.00101735046946424,0.001);
#472=ELLIPSE('',#664,0.00101735046946424,0.001);
#473=ELLIPSE('',#665,0.00406940187785695,0.004);
#474=ELLIPSE('',#666,0.00406940187785695,0.004);
#475=ELLIPSE('',#667,0.00101735046946424,0.001);
#476=ELLIPSE('',#668,0.00101735046946424,0.001);
#477=ELLIPSE('',#669,0.00152602570419636,0.0015);
#478=EDGE_LOOP('',(#156));
#479=EDGE_LOOP('',(#157,#158,#159,#160,#161,#162,#163,#164,#165,#166,#167,
#168,#169,#170,#171,#172,#173,#174,#175,#176,#177,#178,#179,#180));
#480=EDGE_LOOP('',(#181));
#481=EDGE_LOOP('',(#182));
#482=EDGE_LOOP('',(#183,#184,#185,#186,#187,#188,#189,#190,#191,#192,#193,
#194,#195,#196,#197,#198,#199,#200,#201,#202,#203,#204,#205,#206));
#483=EDGE_LOOP('',(#207));
#484=EDGE_LOOP('',(#208,#209,#210,#211));
#485=EDGE_LOOP('',(#212,#213,#214,#215));
#486=EDGE_LOOP('',(#216,#217,#218,#219));
#487=EDGE_LOOP('',(#220,#221,#222,#223));
#488=EDGE_LOOP('',(#224,#225,#226,#227));
#489=EDGE_LOOP('',(#228,#229,#230,#231));
#490=EDGE_LOOP('',(#232,#233,#234,#235));
#491=EDGE_LOOP('',(#236,#237,#238,#239));
#492=EDGE_LOOP('',(#240,#241,#242,#243));
#493=EDGE_LOOP('',(#244,#245,#246,#247));
#494=EDGE_LOOP('',(#248,#249,#250,#251));
#495=EDGE_LOOP('',(#252,#253,#254,#255));
#496=EDGE_LOOP('',(#256,#257,#258,#259));
#497=EDGE_LOOP('',(#260,#261,#262,#263));
#498=EDGE_LOOP('',(#264,#265,#266,#267));
#499=EDGE_LOOP('',(#268,#269,#270,#271));
#500=EDGE_LOOP('',(#272,#273,#274,#275));
#501=EDGE_LOOP('',(#276,#277,#278,#279));
#502=EDGE_LOOP('',(#280,#281,#282,#283));
#503=EDGE_LOOP('',(#284,#285,#286,#287));
#504=EDGE_LOOP('',(#288,#289,#290,#291));
#505=EDGE_LOOP('',(#292,#293,#294,#295));
#506=EDGE_LOOP('',(#296));
#507=EDGE_LOOP('',(#297,#298,#299,#300));
#508=EDGE_LOOP('',(#301));
#509=EDGE_LOOP('',(#302,#303,#304,#305));
#510=EDGE_LOOP('',(#306));
#511=EDGE_LOOP('',(#307));
#512=EDGE_LOOP('',(#308));
#513=EDGE_LOOP('',(#309));
#514=EDGE_LOOP('',(#310));
#515=EDGE_LOOP('',(#311));
#516=EDGE_LOOP('',(#312));
#517=EDGE_LOOP('',(#313));
#518=EDGE_LOOP('',(#314));
#519=EDGE_LOOP('',(#315));
#520=EDGE_LOOP('',(#316));
#521=EDGE_LOOP('',(#317));
#522=EDGE_LOOP('',(#318));
#523=EDGE_LOOP('',(#319));
#524=EDGE_LOOP('',(#320));
#525=EDGE_LOOP('',(#321));
#526=EDGE_LOOP('',(#322));
#527=EDGE_LOOP('',(#323));
#528=FACE_BOUND('',#478,.T.);
#529=FACE_BOUND('',#479,.T.);
#530=FACE_BOUND('',#480,.T.);
#531=FACE_BOUND('',#481,.T.);
#532=FACE_BOUND('',#482,.T.);
#533=FACE_BOUND('',#483,.T.);
#534=FACE_BOUND('',#484,.T.);
#535=FACE_BOUND('',#485,.T.);
#536=FACE_BOUND('',#486,.T.);
#537=FACE_BOUND('',#487,.T.);
#538=FACE_BOUND('',#488,.T.);
#539=FACE_BOUND('',#489,.T.);
#540=FACE_BOUND('',#490,.T.);
#541=FACE_BOUND('',#491,.T.);
#542=FACE_BOUND('',#492,.T.);
#543=FACE_BOUND('',#493,.T.);
#544=FACE_BOUND('',#494,.T.);
#545=FACE_BOUND('',#495,.T.);
#546=FACE_BOUND('',#496,.T.);
#547=FACE_BOUND('',#497,.T.);
#548=FACE_BOUND('',#498,.T.);
#549=FACE_BOUND('',#499,.T.);
#550=FACE_BOUND('',#500,.T.);
#551=FACE_BOUND('',#501,.T.);
#552=FACE_BOUND('',#502,.T.);
#553=FACE_BOUND('',#503,.T.);
#554=FACE_BOUND('',#504,.T.);
#555=FACE_BOUND('',#505,.T.);
#556=FACE_BOUND('',#506,.T.);
#557=FACE_BOUND('',#507,.T.);
#558=FACE_BOUND('',#508,.T.);
#559=FACE_BOUND('',#509,.T.);
#560=FACE_BOUND('',#510,.T.);
#561=FACE_BOUND('',#511,.T.);
#562=FACE_BOUND('',#512,.T.);
#563=FACE_BOUND('',#513,.T.);
#564=FACE_BOUND('',#514,.T.);
#565=FACE_BOUND('',#515,.T.);
#566=FACE_BOUND('',#516,.T.);
#567=FACE_BOUND('',#517,.T.);
#568=FACE_BOUND('',#518,.T.);
#569=FACE_BOUND('',#519,.T.);
#570=FACE_BOUND('',#520,.T.);
#571=FACE_BOUND('',#521,.T.);
#572=FACE_BOUND('',#522,.T.);
#573=FACE_BOUND('',#523,.T.);
#574=FACE_BOUND('',#524,.T.);
#575=FACE_BOUND('',#525,.T.);
#576=FACE_BOUND('',#526,.T.);
#577=FACE_BOUND('',#527,.T.);
#578=PLANE('',#649);
#579=PLANE('',#660);
#580=PLANE('',#671);
#581=PLANE('',#672);
#582=PLANE('',#673);
#583=PLANE('',#674);
#584=PLANE('',#675);
#585=PLANE('',#676);
#586=PLANE('',#677);
#587=PLANE('',#678);
#588=PLANE('',#679);
#589=PLANE('',#680);
#590=PLANE('',#681);
#591=PLANE('',#682);
#592=PLANE('',#683);
#593=PLANE('',#684);
#594=PLANE('',#693);
#595=PLANE('',#695);
#596=PLANE('',#699);
#597=PLANE('',#703);
#598=PLANE('',#709);
#599=PLANE('',#712);
#600=ADVANCED_FACE('',(#528,#529,#530),#578,.T.);
#601=ADVANCED_FACE('',(#531,#532,#533),#579,.T.);
#602=ADVANCED_FACE('',(#534),#580,.F.);
#603=ADVANCED_FACE('',(#535),#581,.F.);
#604=ADVANCED_FACE('',(#536),#582,.T.);
#605=ADVANCED_FACE('',(#537),#583,.T.);
#606=ADVANCED_FACE('',(#538),#584,.T.);
#607=ADVANCED_FACE('',(#539),#585,.T.);
#608=ADVANCED_FACE('',(#540),#586,.T.);
#609=ADVANCED_FACE('',(#541),#587,.T.);
#610=ADVANCED_FACE('',(#542),#588,.F.);
#611=ADVANCED_FACE('',(#543),#589,.F.);
#612=ADVANCED_FACE('',(#544),#590,.F.);
#613=ADVANCED_FACE('',(#545),#591,.F.);
#614=ADVANCED_FACE('',(#546),#592,.F.);
#615=ADVANCED_FACE('',(#547),#593,.F.);
#616=ADVANCED_FACE('',(#548),#12,.F.);
#617=ADVANCED_FACE('',(#549),#13,.F.);
#618=ADVANCED_FACE('',(#550),#14,.F.);
#619=ADVANCED_FACE('',(#551),#15,.F.);
#620=ADVANCED_FACE('',(#552),#16,.F.);
#621=ADVANCED_FACE('',(#553),#17,.F.);
#622=ADVANCED_FACE('',(#554),#18,.T.);
#623=ADVANCED_FACE('',(#555),#19,.T.);
#624=ADVANCED_FACE('',(#556,#557),#594,.T.);
#625=ADVANCED_FACE('',(#558,#559),#595,.F.);
#626=ADVANCED_FACE('',(#560,#561),#20,.F.);
#627=ADVANCED_FACE('',(#562,#563),#596,.T.);
#628=ADVANCED_FACE('',(#564,#565),#21,.F.);
#629=ADVANCED_FACE('',(#566,#567),#597,.T.);
#630=ADVANCED_FACE('',(#568,#569),#22,.F.);
#631=ADVANCED_FACE('',(#570,#571),#23,.F.);
#632=ADVANCED_FACE('',(#572,#573),#24,.F.);
#633=ADVANCED_FACE('',(#574),#598,.T.);
#634=ADVANCED_FACE('',(#575,#576),#25,.F.);
#635=ADVANCED_FACE('',(#577),#599,.T.);
#636=CLOSED_SHELL('',(#600,#601,#602,#603,#604,#605,#606,#607,#608,#609,
#610,#611,#612,#613,#614,#615,#616,#617,#618,#619,#620,#621,#622,#623,#624,
#625,#626,#627,#628,#629,#630,#631,#632,#633,#634,#635));
#637=STYLED_ITEM('',(#638),#645);
#638=PRESENTATION_STYLE_ASSIGNMENT((#639));
#639=SURFACE_STYLE_USAGE(.BOTH.,#640);
#640=SURFACE_SIDE_STYLE('',(#641));
#641=SURFACE_STYLE_FILL_AREA(#642);
#642=FILL_AREA_STYLE('',(#643));
#643=FILL_AREA_STYLE_COLOUR('',#644);
#644=COLOUR_RGB('',0.615686274509804,0.811764705882353,0.929411764705882);
#645=MANIFOLD_SOLID_BREP('PCB Mount',#636);
#646=SHAPE_DEFINITION_REPRESENTATION(#1086,#647);
#647=SHAPE_REPRESENTATION('PCB Mount',(#648),#1081);
#648=AXIS2_PLACEMENT_3D('',#899,#713,#714);
#649=AXIS2_PLACEMENT_3D('',#900,#715,#716);
#650=AXIS2_PLACEMENT_3D('',#901,#717,#718);
#651=AXIS2_PLACEMENT_3D('',#906,#720,#721);
#652=AXIS2_PLACEMENT_3D('',#910,#723,#724);
#653=AXIS2_PLACEMENT_3D('',#918,#728,#729);
#654=AXIS2_PLACEMENT_3D('',#922,#731,#732);
#655=AXIS2_PLACEMENT_3D('',#930,#736,#737);
#656=AXIS2_PLACEMENT_3D('',#934,#739,#740);
#657=AXIS2_PLACEMENT_3D('',#942,#744,#745);
#658=AXIS2_PLACEMENT_3D('',#946,#747,#748);
#659=AXIS2_PLACEMENT_3D('',#951,#751,#752);
#660=AXIS2_PLACEMENT_3D('',#953,#753,#754);
#661=AXIS2_PLACEMENT_3D('',#954,#755,#756);
#662=AXIS2_PLACEMENT_3D('',#959,#758,#759);
#663=AXIS2_PLACEMENT_3D('',#967,#763,#764);
#664=AXIS2_PLACEMENT_3D('',#971,#766,#767);
#665=AXIS2_PLACEMENT_3D('',#979,#771,#772);
#666=AXIS2_PLACEMENT_3D('',#983,#774,#775);
#667=AXIS2_PLACEMENT_3D('',#991,#779,#780);
#668=AXIS2_PLACEMENT_3D('',#995,#782,#783);
#669=AXIS2_PLACEMENT_3D('',#1003,#787,#788);
#670=AXIS2_PLACEMENT_3D('',#1004,#789,#790);
#671=AXIS2_PLACEMENT_3D('',#1006,#791,#792);
#672=AXIS2_PLACEMENT_3D('',#1009,#795,#796);
#673=AXIS2_PLACEMENT_3D('',#1012,#799,#800);
#674=AXIS2_PLACEMENT_3D('',#1015,#803,#804);
#675=AXIS2_PLACEMENT_3D('',#1017,#806,#807);
#676=AXIS2_PLACEMENT_3D('',#1019,#809,#810);
#677=AXIS2_PLACEMENT_3D('',#1022,#813,#814);
#678=AXIS2_PLACEMENT_3D('',#1025,#817,#818);
#679=AXIS2_PLACEMENT_3D('',#1028,#821,#822);
#680=AXIS2_PLACEMENT_3D('',#1031,#825,#826);
#681=AXIS2_PLACEMENT_3D('',#1034,#829,#830);
#682=AXIS2_PLACEMENT_3D('',#1037,#833,#834);
#683=AXIS2_PLACEMENT_3D('',#1040,#837,#838);
#684=AXIS2_PLACEMENT_3D('',#1043,#841,#842);
#685=AXIS2_PLACEMENT_3D('',#1044,#843,#844);
#686=AXIS2_PLACEMENT_3D('',#1045,#845,#846);
#687=AXIS2_PLACEMENT_3D('',#1046,#847,#848);
#688=AXIS2_PLACEMENT_3D('',#1047,#849,#850);
#689=AXIS2_PLACEMENT_3D('',#1048,#851,#852);
#690=AXIS2_PLACEMENT_3D('',#1049,#853,#854);
#691=AXIS2_PLACEMENT_3D('',#1050,#855,#856);
#692=AXIS2_PLACEMENT_3D('',#1051,#857,#858);
#693=AXIS2_PLACEMENT_3D('',#1052,#859,#860);
#694=AXIS2_PLACEMENT_3D('',#1053,#861,#862);
#695=AXIS2_PLACEMENT_3D('',#1055,#863,#864);
#696=AXIS2_PLACEMENT_3D('',#1056,#865,#866);
#697=AXIS2_PLACEMENT_3D('',#1058,#867,#868);
#698=AXIS2_PLACEMENT_3D('',#1059,#869,#870);
#699=AXIS2_PLACEMENT_3D('',#1061,#871,#872);
#700=AXIS2_PLACEMENT_3D('',#1062,#873,#874);
#701=AXIS2_PLACEMENT_3D('',#1064,#875,#876);
#702=AXIS2_PLACEMENT_3D('',#1065,#877,#878);
#703=AXIS2_PLACEMENT_3D('',#1067,#879,#880);
#704=AXIS2_PLACEMENT_3D('',#1068,#881,#882);
#705=AXIS2_PLACEMENT_3D('',#1070,#883,#884);
#706=AXIS2_PLACEMENT_3D('',#1071,#885,#886);
#707=AXIS2_PLACEMENT_3D('',#1072,#887,#888);
#708=AXIS2_PLACEMENT_3D('',#1073,#889,#890);
#709=AXIS2_PLACEMENT_3D('',#1075,#891,#892);
#710=AXIS2_PLACEMENT_3D('',#1076,#893,#894);
#711=AXIS2_PLACEMENT_3D('',#1077,#895,#896);
#712=AXIS2_PLACEMENT_3D('',#1079,#897,#898);
#713=DIRECTION('',(0.,0.,1.));
#714=DIRECTION('',(1.,0.,0.));
#715=DIRECTION('',(0.,-1.,0.));
#716=DIRECTION('',(1.,0.,0.));
#717=DIRECTION('',(0.,-1.,0.));
#718=DIRECTION('',(-6.93889390390723E-16,0.,1.));
#719=DIRECTION('',(-0.0749332438194444,0.,-0.99718855236645));
#720=DIRECTION('',(0.,-1.,0.));
#721=DIRECTION('',(0.,0.,-1.));
#722=DIRECTION('',(-1.,0.,-2.10269512239613E-16));
#723=DIRECTION('',(0.,-1.,0.));
#724=DIRECTION('',(0.,0.,-1.));
#725=DIRECTION('',(0.0749332438194444,0.,-0.99718855236645));
#726=DIRECTION('',(1.,0.,0.));
#727=DIRECTION('',(-0.0734299463751824,0.,0.997300377506866));
#728=DIRECTION('',(0.,-1.,0.));
#729=DIRECTION('',(0.,0.,-1.));
#730=DIRECTION('',(1.,0.,0.));
#731=DIRECTION('',(0.,-1.,0.));
#732=DIRECTION('',(0.,0.,-1.));
#733=DIRECTION('',(0.,0.,-1.));
#734=DIRECTION('',(1.,0.,0.));
#735=DIRECTION('',(0.,0.,1.));
#736=DIRECTION('',(0.,-1.,0.));
#737=DIRECTION('',(0.,0.,-1.));
#738=DIRECTION('',(1.,0.,0.));
#739=DIRECTION('',(0.,-1.,0.));
#740=DIRECTION('',(0.,0.,-1.));
#741=DIRECTION('',(0.,0.,1.));
#742=DIRECTION('',(-1.,0.,0.));
#743=DIRECTION('',(0.,0.,-1.));
#744=DIRECTION('',(0.,-1.,0.));
#745=DIRECTION('',(0.,0.,-1.));
#746=DIRECTION('',(-1.,0.,0.));
#747=DIRECTION('',(0.,-1.,0.));
#748=DIRECTION('',(0.,0.,-1.));
#749=DIRECTION('',(0.0734299463751826,0.,0.997300377506866));
#750=DIRECTION('',(-1.,0.,0.));
#751=DIRECTION('',(0.,-1.,0.));
#752=DIRECTION('',(-6.93889390390723E-16,0.,1.));
#753=DIRECTION('',(-1.27604488008417E-16,0.982945435240842,0.183897447886563));
#754=DIRECTION('',(-1.,-1.25428249004118E-16,-2.34661396836194E-17));
#755=DIRECTION('',(1.27604488008417E-16,-0.982945435240842,-0.183897447886563));
#756=DIRECTION('',(0.,-0.183897447886563,0.982945435240842));
#757=DIRECTION('',(-1.,-1.29818485781107E-16,0.));
#758=DIRECTION('',(-1.27604488008417E-16,0.982945435240842,0.183897447886563));
#759=DIRECTION('',(-6.82055408846612E-16,-0.183897447886563,0.982945435240842));
#760=DIRECTION('',(0.,0.183897447886563,-0.982945435240842));
#761=DIRECTION('',(-1.,-1.29818485781107E-16,0.));
#762=DIRECTION('',(0.,-0.183897447886563,0.982945435240842));
#763=DIRECTION('',(-1.27604488008417E-16,0.982945435240842,0.183897447886563));
#764=DIRECTION('',(-6.82055408846612E-16,-0.183897447886563,0.982945435240842));
#765=DIRECTION('',(-1.,-1.29818485781107E-16,0.));
#766=DIRECTION('',(-1.27604488008417E-16,0.982945435240842,0.183897447886563));
#767=DIRECTION('',(-6.82055408846612E-16,-0.183897447886563,0.982945435240842));
#768=DIRECTION('',(0.0721842121747146,0.183417717766859,-0.980381242334794));
#769=DIRECTION('',(1.,0.,0.));
#770=DIRECTION('',(-0.0736622841315813,-0.183397843311729,0.980275011904886));
#771=DIRECTION('',(-1.27604488008417E-16,0.982945435240842,0.183897447886563));
#772=DIRECTION('',(6.82055408846612E-16,0.183897447886563,-0.982945435240842));
#773=DIRECTION('',(1.,9.04795506959228E-17,2.10269512239613E-16));
#774=DIRECTION('',(-1.27604488008417E-16,0.982945435240842,0.183897447886563));
#775=DIRECTION('',(-6.82055408846612E-16,-0.183897447886563,0.982945435240842));
#776=DIRECTION('',(0.0736622841315813,-0.183397843311729,0.980275011904886));
#777=DIRECTION('',(-1.,0.,0.));
#778=DIRECTION('',(-0.0721842121747148,0.183417717766859,-0.980381242334793));
#779=DIRECTION('',(-1.27604488008417E-16,0.982945435240842,0.183897447886563));
#780=DIRECTION('',(-6.82055408846612E-16,-0.183897447886563,0.982945435240842));
#781=DIRECTION('',(1.,1.29818485781107E-16,0.));
#782=DIRECTION('',(-1.27604488008417E-16,0.982945435240842,0.183897447886563));
#783=DIRECTION('',(-6.82055408846612E-16,-0.183897447886563,0.982945435240842));
#784=DIRECTION('',(0.,-0.183897447886563,0.982945435240842));
#785=DIRECTION('',(1.,1.29818485781107E-16,0.));
#786=DIRECTION('',(0.,0.183897447886563,-0.982945435240842));
#787=DIRECTION('',(-1.27604488008417E-16,0.982945435240842,0.183897447886563));
#788=DIRECTION('',(6.82055408846612E-16,0.183897447886563,-0.982945435240842));
#789=DIRECTION('',(-1.27604488008417E-16,0.982945435240842,0.183897447886563));
#790=DIRECTION('',(0.,-0.183897447886563,0.982945435240842));
#791=DIRECTION('',(-1.,0.,0.));
#792=DIRECTION('',(0.,0.,1.));
#793=DIRECTION('',(0.,1.,0.));
#794=DIRECTION('',(0.,1.,0.));
#795=DIRECTION('',(0.,0.,1.));
#796=DIRECTION('',(1.,0.,0.));
#797=DIRECTION('',(0.,1.,0.));
#798=DIRECTION('',(0.,1.,0.));
#799=DIRECTION('',(-1.,0.,0.));
#800=DIRECTION('',(0.,0.,1.));
#801=DIRECTION('',(0.,1.,0.));
#802=DIRECTION('',(0.,1.,0.));
#803=DIRECTION('',(0.,0.,-1.));
#804=DIRECTION('',(-1.,0.,0.));
#805=DIRECTION('',(0.,1.,0.));
#806=DIRECTION('',(1.,0.,0.));
#807=DIRECTION('',(0.,0.,-1.));
#808=DIRECTION('',(0.,1.,0.));
#809=DIRECTION('',(0.,0.,-1.));
#810=DIRECTION('',(-1.,0.,0.));
#811=DIRECTION('',(0.,1.,0.));
#812=DIRECTION('',(0.,1.,0.));
#813=DIRECTION('',(-0.997300377506866,0.,0.0734299463751826));
#814=DIRECTION('',(0.0734299463751826,0.,0.997300377506866));
#815=DIRECTION('',(0.,1.,0.));
#816=DIRECTION('',(0.,1.,0.));
#817=DIRECTION('',(0.99718855236645,0.,-0.0749332438194444));
#818=DIRECTION('',(-0.0749332438194444,0.,-0.99718855236645));
#819=DIRECTION('',(0.,1.,0.));
#820=DIRECTION('',(0.,1.,0.));
#821=DIRECTION('',(2.10269512239613E-16,0.,-1.));
#822=DIRECTION('',(-1.,0.,-2.10269512239613E-16));
#823=DIRECTION('',(0.,1.,0.));
#824=DIRECTION('',(0.,1.,0.));
#825=DIRECTION('',(0.99718855236645,0.,0.0749332438194444));
#826=DIRECTION('',(0.0749332438194444,0.,-0.99718855236645));
#827=DIRECTION('',(0.,1.,0.));
#828=DIRECTION('',(0.,1.,0.));
#829=DIRECTION('',(-0.997300377506866,0.,-0.0734299463751824));
#830=DIRECTION('',(-0.0734299463751824,0.,0.997300377506866));
#831=DIRECTION('',(0.,1.,0.));
#832=DIRECTION('',(0.,1.,0.));
#833=DIRECTION('',(0.,0.,1.));
#834=DIRECTION('',(1.,0.,0.));
#835=DIRECTION('',(0.,1.,0.));
#836=DIRECTION('',(0.,1.,0.));
#837=DIRECTION('',(1.,0.,0.));
#838=DIRECTION('',(0.,0.,-1.));
#839=DIRECTION('',(0.,1.,0.));
#840=DIRECTION('',(0.,1.,0.));
#841=DIRECTION('',(0.,0.,1.));
#842=DIRECTION('',(1.,0.,0.));
#843=DIRECTION('',(0.,1.,0.));
#844=DIRECTION('',(0.,0.,1.));
#845=DIRECTION('',(0.,-1.,0.));
#846=DIRECTION('',(0.,0.,-1.));
#847=DIRECTION('',(0.,-1.,0.));
#848=DIRECTION('',(0.,0.,-1.));
#849=DIRECTION('',(0.,-1.,0.));
#850=DIRECTION('',(0.,0.,-1.));
#851=DIRECTION('',(0.,-1.,0.));
#852=DIRECTION('',(0.,0.,-1.));
#853=DIRECTION('',(0.,-1.,0.));
#854=DIRECTION('',(0.,0.,-1.));
#855=DIRECTION('',(0.,-1.,0.));
#856=DIRECTION('',(0.,0.,-1.));
#857=DIRECTION('',(0.,1.,0.));
#858=DIRECTION('',(0.,0.,1.));
#859=DIRECTION('',(0.,0.,-1.));
#860=DIRECTION('',(-1.,0.,0.));
#861=DIRECTION('',(0.,0.,1.));
#862=DIRECTION('',(-1.,0.,0.));
#863=DIRECTION('',(0.,0.,1.));
#864=DIRECTION('',(1.,0.,0.));
#865=DIRECTION('',(0.,0.,-1.));
#866=DIRECTION('',(-1.,0.,0.));
#867=DIRECTION('',(-1.27604488008417E-16,0.982945435240842,0.183897447886563));
#868=DIRECTION('',(0.,-0.183897447886563,0.982945435240842));
#869=DIRECTION('',(1.27604488008417E-16,-0.982945435240842,-0.183897447886563));
#870=DIRECTION('',(0.,-0.183897447886563,0.982945435240842));
#871=DIRECTION('',(-1.27604488008417E-16,0.982945435240842,0.183897447886563));
#872=DIRECTION('',(-1.,-1.25428249004118E-16,-2.34661396836194E-17));
#873=DIRECTION('',(-1.27604488008417E-16,0.982945435240842,0.183897447886563));
#874=DIRECTION('',(0.,-0.183897447886563,0.982945435240842));
#875=DIRECTION('',(-1.27604488008417E-16,0.982945435240842,0.183897447886563));
#876=DIRECTION('',(0.,-0.183897447886563,0.982945435240842));
#877=DIRECTION('',(-1.27604488008417E-16,0.982945435240842,0.183897447886563));
#878=DIRECTION('',(0.,-0.183897447886563,0.982945435240842));
#879=DIRECTION('',(-1.27604488008417E-16,0.982945435240842,0.183897447886563));
#880=DIRECTION('',(-1.,-1.25428249004118E-16,-2.34661396836194E-17));
#881=DIRECTION('',(-1.27604488008417E-16,0.982945435240842,0.183897447886563));
#882=DIRECTION('',(0.,-0.183897447886563,0.982945435240842));
#883=DIRECTION('',(-1.27604488008417E-16,0.982945435240842,0.183897447886563));
#884=DIRECTION('',(0.,-0.183897447886563,0.982945435240842));
#885=DIRECTION('',(-1.27604488008417E-16,0.982945435240842,0.183897447886563));
#886=DIRECTION('',(0.,-0.183897447886563,0.982945435240842));
#887=DIRECTION('',(0.,0.,-1.));
#888=DIRECTION('',(-1.,0.,0.));
#889=DIRECTION('',(0.,0.,-1.));
#890=DIRECTION('',(-1.,0.,0.));
#891=DIRECTION('',(0.,0.,-1.));
#892=DIRECTION('',(1.,0.,0.));
#893=DIRECTION('',(0.,0.,-1.));
#894=DIRECTION('',(-1.,0.,0.));
#895=DIRECTION('',(0.,0.,1.));
#896=DIRECTION('',(-1.,0.,0.));
#897=DIRECTION('',(0.,0.,-1.));
#898=DIRECTION('',(1.,0.,0.));
#899=CARTESIAN_POINT('',(0.,0.,0.));
#900=CARTESIAN_POINT('',(0.,-0.01,0.00865));
#901=CARTESIAN_POINT('',(-0.0127,-0.01,0.012604703081591));
#902=CARTESIAN_POINT('',(-0.0127,-0.01,0.0136220535510552));
#903=CARTESIAN_POINT('',(0.01585,-0.01,0.00865));
#904=CARTESIAN_POINT('',(0.0161768986781583,-0.01,0.0130002670247222));
#905=CARTESIAN_POINT('',(0.0152,-0.01,-6.93889390390723E-18));
#906=CARTESIAN_POINT('',(0.0121881444686925,-0.01,0.0133));
#907=CARTESIAN_POINT('',(0.0121881444686925,-0.01,0.0173));
#908=CARTESIAN_POINT('',(-0.00825,-0.01,0.0173));
#909=CARTESIAN_POINT('',(-0.0121881444686925,-0.01,0.0173));
#910=CARTESIAN_POINT('',(-0.0121881444686925,-0.01,0.0133));
#911=CARTESIAN_POINT('',(-0.0161768986781583,-0.01,0.0130002670247222));
#912=CARTESIAN_POINT('',(-0.01585,-0.01,0.00865));
#913=CARTESIAN_POINT('',(-0.0152,-0.01,-3.46944695195361E-18));
#914=CARTESIAN_POINT('',(-0.0127,-0.01,0.));
#915=CARTESIAN_POINT('',(-0.0102,-0.01,0.));
#916=CARTESIAN_POINT('',(-0.010542373529927,-0.01,0.00465));
#917=CARTESIAN_POINT('',(-0.0108057117910649,-0.01,0.00822657005362482));
#918=CARTESIAN_POINT('',(-0.00980841141355801,-0.01,0.0083));
#919=CARTESIAN_POINT('',(-0.00980841141355801,-0.01,0.0093));
#920=CARTESIAN_POINT('',(-0.00859237352992704,-0.01,0.0093));
#921=CARTESIAN_POINT('',(-0.0073,-0.01,0.0093));
#922=CARTESIAN_POINT('',(-0.0073,-0.01,0.0083));
#923=CARTESIAN_POINT('',(-0.0063,-0.01,0.0083));
#924=CARTESIAN_POINT('',(-0.0063,-0.01,0.0083));
#925=CARTESIAN_POINT('',(-0.0063,-0.01,0.0073));
#926=CARTESIAN_POINT('',(-0.0054,-0.01,0.0073));
#927=CARTESIAN_POINT('',(-0.0045,-0.01,0.0073));
#928=CARTESIAN_POINT('',(-0.0045,-0.01,0.0088));
#929=CARTESIAN_POINT('',(-0.0045,-0.01,0.0088));
#930=CARTESIAN_POINT('',(-0.003,-0.01,0.0088));
#931=CARTESIAN_POINT('',(-0.003,-0.01,0.0103));
#932=CARTESIAN_POINT('',(-0.00225,-0.01,0.0103));
#933=CARTESIAN_POINT('',(0.003,-0.01,0.0103));
#934=CARTESIAN_POINT('',(0.003,-0.01,0.0088));
#935=CARTESIAN_POINT('',(0.0045,-0.01,0.0088));
#936=CARTESIAN_POINT('',(0.0045,-0.01,0.0088));
#937=CARTESIAN_POINT('',(0.0045,-0.01,0.0073));
#938=CARTESIAN_POINT('',(0.0054,-0.01,0.0073));
#939=CARTESIAN_POINT('',(0.0063,-0.01,0.0073));
#940=CARTESIAN_POINT('',(0.0063,-0.01,0.0083));
#941=CARTESIAN_POINT('',(0.0063,-0.01,0.0083));
#942=CARTESIAN_POINT('',(0.0073,-0.01,0.0083));
#943=CARTESIAN_POINT('',(0.0073,-0.01,0.0093));
#944=CARTESIAN_POINT('',(0.00859237352992704,-0.01,0.0093));
#945=CARTESIAN_POINT('',(0.009808411413558,-0.01,0.0093));
#946=CARTESIAN_POINT('',(0.009808411413558,-0.01,0.0083));
#947=CARTESIAN_POINT('',(0.0108057117910649,-0.01,0.00822657005362482));
#948=CARTESIAN_POINT('',(0.010542373529927,-0.01,0.00465));
#949=CARTESIAN_POINT('',(0.0102,-0.01,0.));
#950=CARTESIAN_POINT('',(0.0127,-0.01,0.));
#951=CARTESIAN_POINT('',(0.0127,-0.01,0.012604703081591));
#952=CARTESIAN_POINT('',(0.0127,-0.01,0.0136220535510552));
#953=CARTESIAN_POINT('',(-0.0127,0.,-1.7347234759768E-18));
#954=CARTESIAN_POINT('',(-0.0127,-0.00261662342546351,0.0139860453821531));
#955=CARTESIAN_POINT('',(-0.0127,-0.00298441832123664,0.0159519362526348));
#956=CARTESIAN_POINT('',(-0.00225,-0.0019270079958889,0.0103));
#957=CARTESIAN_POINT('',(0.003,-0.0019270079958889,0.0103));
#958=CARTESIAN_POINT('',(-0.003,-0.0019270079958889,0.0103));
#959=CARTESIAN_POINT('',(-0.003,-0.0016463757634779,0.0088));
#960=CARTESIAN_POINT('',(-0.0045,-0.0016463757634779,0.0088));
#961=CARTESIAN_POINT('',(-0.0045,-0.00192888089457424,0.0103100107817405));
#962=CARTESIAN_POINT('',(-0.0045,-0.00136574353106689,0.0073));
#963=CARTESIAN_POINT('',(-0.0054,-0.00136574353106689,0.0073));
#964=CARTESIAN_POINT('',(-0.0063,-0.00136574353106689,0.0073));
#965=CARTESIAN_POINT('',(-0.0063,-0.00183850031609797,0.00982691991741009));
#966=CARTESIAN_POINT('',(-0.0063,-0.00155283168600756,0.0083));
#967=CARTESIAN_POINT('',(-0.0073,-0.00155283168600756,0.0083));
#968=CARTESIAN_POINT('',(-0.0073,-0.00173991984094823,0.0093));
#969=CARTESIAN_POINT('',(-0.00859237352992705,-0.00173991984094824,0.0093));
#970=CARTESIAN_POINT('',(-0.00980841141355801,-0.00173991984094823,0.0093));
#971=CARTESIAN_POINT('',(-0.00980841141355801,-0.00155283168600756,0.0083));
#972=CARTESIAN_POINT('',(-0.0108057117910649,-0.00153909381282284,0.00822657005362482));
#973=CARTESIAN_POINT('',(-0.0106632540139267,-0.00117711326924393,0.00629175732486761));
#974=CARTESIAN_POINT('',(-0.0102,0.,-2.23779328401009E-18));
#975=CARTESIAN_POINT('',(-0.0127,0.,0.));
#976=CARTESIAN_POINT('',(-0.0152,-1.0842021724855E-18,-3.46944695195361E-18));
#977=CARTESIAN_POINT('',(-0.0159632324406261,-0.00190022866120109,0.0101568624791008));
#978=CARTESIAN_POINT('',(-0.0161768986781583,-0.00243219597139131,0.0130002670247222));
#979=CARTESIAN_POINT('',(-0.0121881444686925,-0.00248827246071091,0.0133));
#980=CARTESIAN_POINT('',(-0.0121881444686925,-0.00323662508047359,0.0173));
#981=CARTESIAN_POINT('',(-0.00825,-0.00323662508047359,0.0173));
#982=CARTESIAN_POINT('',(0.0121881444686925,-0.00323662508047359,0.0173));
#983=CARTESIAN_POINT('',(0.0121881444686925,-0.00248827246071091,0.0133));
#984=CARTESIAN_POINT('',(0.0161768986781583,-0.00243219597139131,0.0130002670247222));
#985=CARTESIAN_POINT('',(0.0159632324406261,-0.00190022866120109,0.0101568624791008));
#986=CARTESIAN_POINT('',(0.0152,3.25260651745651E-18,-8.67361737988404E-18));
#987=CARTESIAN_POINT('',(0.0127,0.,0.));
#988=CARTESIAN_POINT('',(0.0102,3.14490073750085E-18,0.));
#989=CARTESIAN_POINT('',(0.0106632540139267,-0.00117711326924392,0.00629175732486761));
#990=CARTESIAN_POINT('',(0.0108057117910649,-0.00153909381282284,0.00822657005362482));
#991=CARTESIAN_POINT('',(0.009808411413558,-0.00155283168600755,0.0083));
#992=CARTESIAN_POINT('',(0.009808411413558,-0.00173991984094823,0.0093));
#993=CARTESIAN_POINT('',(0.00859237352992704,-0.00173991984094823,0.0093));
#994=CARTESIAN_POINT('',(0.0073,-0.00173991984094823,0.0093));
#995=CARTESIAN_POINT('',(0.0073,-0.00155283168600756,0.0083));
#996=CARTESIAN_POINT('',(0.0063,-0.00155283168600756,0.0083));
#997=CARTESIAN_POINT('',(0.0063,-0.00183850031609797,0.00982691991741009));
#998=CARTESIAN_POINT('',(0.0063,-0.00136574353106689,0.0073));
#999=CARTESIAN_POINT('',(0.0054,-0.00136574353106689,0.0073));
#1000=CARTESIAN_POINT('',(0.0045,-0.00136574353106689,0.0073));
#1001=CARTESIAN_POINT('',(0.0045,-0.00192888089457424,0.0103100107817405));
#1002=CARTESIAN_POINT('',(0.0045,-0.0016463757634779,0.0088));
#1003=CARTESIAN_POINT('',(0.003,-0.0016463757634779,0.0088));
#1004=CARTESIAN_POINT('',(0.0127,-0.00261662342546351,0.0139860453821531));
#1005=CARTESIAN_POINT('',(0.0127,-0.00298441832123664,0.0159519362526348));
#1006=CARTESIAN_POINT('',(-0.0045,-0.01,0.0088));
#1007=CARTESIAN_POINT('',(-0.0045,-0.01,0.0088));
#1008=CARTESIAN_POINT('',(-0.0045,-0.01,0.0073));
#1009=CARTESIAN_POINT('',(-0.00225,-0.01,0.0103));
#1010=CARTESIAN_POINT('',(0.003,-0.01,0.0103));
#1011=CARTESIAN_POINT('',(-0.003,0.,0.0103));
#1012=CARTESIAN_POINT('',(0.0045,-0.01,0.0088));
#1013=CARTESIAN_POINT('',(0.0045,-0.01,0.0088));
#1014=CARTESIAN_POINT('',(0.0045,-0.01,0.0073));
#1015=CARTESIAN_POINT('',(0.0054,-0.01,0.0073));
#1016=CARTESIAN_POINT('',(0.0063,-0.01,0.0073));
#1017=CARTESIAN_POINT('',(0.0063,-0.01,0.0083));
#1018=CARTESIAN_POINT('',(0.0063,-0.01,0.0083));
#1019=CARTESIAN_POINT('',(0.00859237352992704,-0.01,0.0093));
#1020=CARTESIAN_POINT('',(0.0073,0.,0.0093));
#1021=CARTESIAN_POINT('',(0.009808411413558,-0.01,0.0093));
#1022=CARTESIAN_POINT('',(0.010542373529927,-0.01,0.00465));
#1023=CARTESIAN_POINT('',(0.0108057117910649,0.,0.00822657005362482));
#1024=CARTESIAN_POINT('',(0.0102,-0.01,0.));
#1025=CARTESIAN_POINT('',(0.01585,-0.01,0.00865));
#1026=CARTESIAN_POINT('',(0.0152,-0.01,-6.93889390390723E-18));
#1027=CARTESIAN_POINT('',(0.0161768986781583,-0.01,0.0130002670247222));
#1028=CARTESIAN_POINT('',(-0.00825,-0.01,0.0173));
#1029=CARTESIAN_POINT('',(-0.0121881444686925,-0.01,0.0173));
#1030=CARTESIAN_POINT('',(0.0121881444686925,0.,0.0173));
#1031=CARTESIAN_POINT('',(-0.01585,-0.01,0.00865));
#1032=CARTESIAN_POINT('',(-0.0152,-0.01,-3.46944695195361E-18));
#1033=CARTESIAN_POINT('',(-0.0161768986781583,-0.01,0.0130002670247222));
#1034=CARTESIAN_POINT('',(-0.010542373529927,-0.01,0.00465));
#1035=CARTESIAN_POINT('',(-0.0108057117910649,-0.01,0.00822657005362482));
#1036=CARTESIAN_POINT('',(-0.0102,-0.01,0.));
#1037=CARTESIAN_POINT('',(-0.00859237352992704,-0.01,0.0093));
#1038=CARTESIAN_POINT('',(-0.0073,-0.01,0.0093));
#1039=CARTESIAN_POINT('',(-0.00980841141355801,0.,0.0093));
#1040=CARTESIAN_POINT('',(-0.0063,-0.01,0.0083));
#1041=CARTESIAN_POINT('',(-0.0063,-0.01,0.0073));
#1042=CARTESIAN_POINT('',(-0.0063,0.,0.0083));
#1043=CARTESIAN_POINT('',(-0.0054,-0.01,0.0073));
#1044=CARTESIAN_POINT('',(0.003,-0.01,0.0088));
#1045=CARTESIAN_POINT('',(-0.003,-0.01,0.0088));
#1046=CARTESIAN_POINT('',(0.009808411413558,-0.01,0.0083));
#1047=CARTESIAN_POINT('',(0.0073,-0.01,0.0083));
#1048=CARTESIAN_POINT('',(-0.0073,-0.01,0.0083));
#1049=CARTESIAN_POINT('',(-0.00980841141355801,-0.01,0.0083));
#1050=CARTESIAN_POINT('',(0.0121881444686925,-0.01,0.0133));
#1051=CARTESIAN_POINT('',(-0.0121881444686925,-0.01,0.0133));
#1052=CARTESIAN_POINT('',(0.0127,-0.01,0.));
#1053=CARTESIAN_POINT('',(0.0127,-0.0047270079958889,0.));
#1054=CARTESIAN_POINT('',(0.01195,-0.0047270079958889,0.));
#1055=CARTESIAN_POINT('',(-0.0127,-0.01,0.));
#1056=CARTESIAN_POINT('',(-0.0127,-0.0047270079958889,0.));
#1057=CARTESIAN_POINT('',(-0.01345,-0.0047270079958889,0.));
#1058=CARTESIAN_POINT('',(-0.0127,-0.00654840516642688,0.0132504555906069));
#1059=CARTESIAN_POINT('',(-0.0127,-0.00654840516642688,0.0132504555906069));
#1060=CARTESIAN_POINT('',(-0.0127,-0.00691620006220001,0.0152163464610886));
#1061=CARTESIAN_POINT('',(5.10417952033668E-19,-0.00555009428120016,0.00791441020845375));
#1062=CARTESIAN_POINT('',(-0.0127,-0.00654840516642688,0.0132504555906069));
#1063=CARTESIAN_POINT('',(-0.0127,-0.00673230261431344,0.0142334010258477));
#1064=CARTESIAN_POINT('',(0.0127,-0.00654840516642688,0.0132504555906069));
#1065=CARTESIAN_POINT('',(0.0127,-0.00654840516642688,0.0132504555906069));
#1066=CARTESIAN_POINT('',(0.0127,-0.00691620006220001,0.0152163464610886));
#1067=CARTESIAN_POINT('',(5.10417952033668E-19,-0.00555009428120016,0.00791441020845375));
#1068=CARTESIAN_POINT('',(0.0127,-0.00654840516642688,0.0132504555906069));
#1069=CARTESIAN_POINT('',(0.0127,-0.00673230261431344,0.0142334010258477));
#1070=CARTESIAN_POINT('',(0.0127,-0.0271902593064845,0.00938860918498908));
#1071=CARTESIAN_POINT('',(-0.0127,-0.0271902593064845,0.00938860918498908));
#1072=CARTESIAN_POINT('',(-0.0127,-0.0047270079958889,0.005));
#1073=CARTESIAN_POINT('',(-0.0127,-0.0047270079958889,0.005));
#1074=CARTESIAN_POINT('',(-0.01345,-0.0047270079958889,0.005));
#1075=CARTESIAN_POINT('',(-0.000875,-0.005,0.005));
#1076=CARTESIAN_POINT('',(0.0127,-0.0047270079958889,0.005));
#1077=CARTESIAN_POINT('',(0.0127,-0.0047270079958889,0.005));
#1078=CARTESIAN_POINT('',(0.01195,-0.0047270079958889,0.005));
#1079=CARTESIAN_POINT('',(-0.000875,-0.005,0.005));
#1080=MECHANICAL_DESIGN_GEOMETRIC_PRESENTATION_REPRESENTATION('',(#637),
#1081);
#1081=(
GEOMETRIC_REPRESENTATION_CONTEXT(3)
GLOBAL_UNCERTAINTY_ASSIGNED_CONTEXT((#1082))
GLOBAL_UNIT_ASSIGNED_CONTEXT((#1085,#1084,#1083))
REPRESENTATION_CONTEXT('PCB Mount','TOP_LEVEL_ASSEMBLY_PART')
);
#1082=UNCERTAINTY_MEASURE_WITH_UNIT(LENGTH_MEASURE(1.E-8),#1085,
'DISTANCE_ACCURACY_VALUE','Maximum Tolerance applied to model');
#1083=(
NAMED_UNIT(*)
SI_UNIT($,.STERADIAN.)
SOLID_ANGLE_UNIT()
);
#1084=(
NAMED_UNIT(*)
PLANE_ANGLE_UNIT()
SI_UNIT($,.RADIAN.)
);
#1085=(
LENGTH_UNIT()
NAMED_UNIT(*)
SI_UNIT($,.METRE.)
);
#1086=PRODUCT_DEFINITION_SHAPE('','',#1087);
#1087=PRODUCT_DEFINITION('','',#1089,#1088);
#1088=PRODUCT_DEFINITION_CONTEXT('',#1095,'design');
#1089=PRODUCT_DEFINITION_FORMATION_WITH_SPECIFIED_SOURCE('','',#1091,
 .NOT_KNOWN.);
#1090=PRODUCT_RELATED_PRODUCT_CATEGORY('','',(#1091));
#1091=PRODUCT('PCB Mount','PCB Mount','PCB Mount',(#1093));
#1092=PRODUCT_CATEGORY('','');
#1093=PRODUCT_CONTEXT('',#1095,'mechanical');
#1094=APPLICATION_PROTOCOL_DEFINITION('international standard',
'ap242_managed_model_based_3d_engineering',2020,#1095);
#1095=APPLICATION_CONTEXT('managed model based 3d engineering');
ENDSEC;
END-ISO-10303-21;
